<svg width="813.6mm" height="273.2mm" viewBox="0 0 813.6 273.2" xmlns="http://www.w3.org/2000/svg" version="1.1" preserveAspectRatio="xMidYMid meet"><g id="svgGroup" stroke-linecap="round" fill-rule="evenodd" font-size="9pt" stroke="#000" stroke-width="0.25mm" fill="none" style="stroke:#000;stroke-width:0.25mm;fill:none"><path d="M 28.7 273.141 L 28.7 268 L 58.5 268 L 58.5 273.141 L 58.559 273.2 L 88.641 273.2 L 88.7 273.141 L 88.7 268 L 118.5 268 L 118.5 273.141 L 118.559 273.2 L 148.641 273.2 L 148.7 273.141 L 148.7 268 L 178.5 268 L 178.5 273.141 L 178.559 273.2 L 208.641 273.2 L 208.7 273.141 L 208.7 268 L 238.5 268 L 238.5 273.141 L 238.559 273.2 L 267.141 273.2 L 267.2 273.141 L 267.2 244.559 L 267.141 244.5 L 262 244.5 L 262 214.7 L 267.141 214.7 L 267.2 214.641 L 267.2 186.059 L 267.141 186 L 0.059 186 L 0 186.059 L 0 214.641 L 0.059 214.7 L 5.2 214.7 L 5.2 244.5 L 0.059 244.5 L 0 244.559 L 0 273.141 L 0.059 273.2 L 28.641 273.2 L 28.7 273.141 Z" id="front_outsideCutPath" stroke="#FF0000" stroke-width="0.1" style="stroke:#FF0000;stroke-width:0.1" vector-effect="non-scaling-stroke"/><path d="M 146.31 236.187 L 144.896 236.187 L 144.896 230.149 A 3.996 3.996 0 0 0 144.85 229.523 Q 144.742 228.841 144.377 228.446 A 1.594 1.594 0 0 0 143.723 228.029 Q 143.466 227.938 143.15 227.904 A 3.748 3.748 0 0 0 142.75 227.884 Q 141.285 227.884 140.604 228.676 A 2.311 2.311 0 0 0 140.202 229.378 Q 139.923 230.123 139.923 231.29 L 139.923 236.187 L 138.509 236.187 L 138.509 226.854 L 139.659 226.854 L 139.889 228.131 L 139.957 228.131 A 2.862 2.862 0 0 1 141.078 227.111 A 3.442 3.442 0 0 1 141.175 227.062 A 3.828 3.828 0 0 1 142.537 226.699 A 4.629 4.629 0 0 1 142.92 226.683 A 5.581 5.581 0 0 1 143.87 226.759 Q 144.866 226.931 145.458 227.496 A 2.45 2.45 0 0 1 146.055 228.434 Q 146.198 228.82 146.261 229.298 A 6.169 6.169 0 0 1 146.31 230.098 L 146.31 236.187 Z M 119.153 226.854 L 119.153 227.952 L 116.777 227.952 L 116.777 236.187 L 115.364 236.187 L 115.364 227.952 L 113.695 227.952 L 113.695 227.313 L 115.364 226.802 L 115.364 226.283 A 5.729 5.729 0 0 1 115.498 224.985 Q 115.911 223.214 117.604 222.907 A 4.297 4.297 0 0 1 118.37 222.843 Q 119.111 222.843 120.107 223.141 L 119.741 224.273 Q 118.923 224.009 118.344 224.009 Q 117.544 224.009 117.161 224.542 Q 116.777 225.074 116.777 226.249 L 116.777 226.854 L 119.153 226.854 Z M 153.505 235.02 L 153.505 236.101 Q 153.275 236.212 152.828 236.285 A 6.127 6.127 0 0 1 152.429 236.337 Q 152.214 236.357 152.024 236.357 A 3.692 3.692 0 0 1 150.936 236.211 Q 149.74 235.841 149.427 234.542 A 4.443 4.443 0 0 1 149.316 233.504 L 149.316 227.952 L 147.979 227.952 L 147.979 227.271 L 149.316 226.683 L 149.912 224.691 L 150.729 224.691 L 150.729 226.854 L 153.437 226.854 L 153.437 227.952 L 150.729 227.952 L 150.729 233.445 A 2.847 2.847 0 0 0 150.77 233.945 Q 150.819 234.219 150.927 234.436 A 1.371 1.371 0 0 0 151.129 234.739 A 1.313 1.313 0 0 0 151.937 235.169 A 1.889 1.889 0 0 0 152.228 235.19 A 4.642 4.642 0 0 0 152.908 235.142 A 4.282 4.282 0 0 0 152.952 235.135 A 7.647 7.647 0 0 0 153.156 235.1 Q 153.365 235.061 153.505 235.02 Z M 126.23 226.785 L 126.034 228.097 Q 125.552 227.99 125.164 227.973 A 3.316 3.316 0 0 0 125.012 227.969 A 2.449 2.449 0 0 0 123.202 228.751 A 3.351 3.351 0 0 0 123.075 228.889 A 3.228 3.228 0 0 0 122.296 230.701 A 4.291 4.291 0 0 0 122.27 231.179 L 122.27 236.187 L 120.856 236.187 L 120.856 226.854 L 122.023 226.854 L 122.185 228.582 L 122.253 228.582 A 4.774 4.774 0 0 1 122.787 227.82 A 3.647 3.647 0 0 1 123.505 227.177 A 2.818 2.818 0 0 1 125.114 226.683 A 6.49 6.49 0 0 1 125.695 226.708 A 4.737 4.737 0 0 1 126.23 226.785 Z M 135.901 232.932 A 7.302 7.302 0 0 0 136.031 231.512 Q 136.031 230.604 135.839 229.85 A 4.402 4.402 0 0 0 134.877 227.986 A 3.701 3.701 0 0 0 133.159 226.878 A 4.75 4.75 0 0 0 131.765 226.683 A 5.49 5.49 0 0 0 130.779 226.768 A 3.739 3.739 0 0 0 128.597 227.956 Q 127.456 229.229 127.456 231.512 A 7.072 7.072 0 0 0 127.545 232.657 A 5.229 5.229 0 0 0 127.984 234.083 Q 128.512 235.182 129.483 235.769 Q 130.453 236.357 131.705 236.357 A 5.489 5.489 0 0 0 132.664 236.277 A 3.769 3.769 0 0 0 134.882 235.075 A 3.943 3.943 0 0 0 135.351 234.43 Q 135.734 233.775 135.901 232.932 Z M 128.921 231.512 A 7.158 7.158 0 0 0 128.989 232.534 Q 129.064 233.053 129.222 233.474 A 2.966 2.966 0 0 0 129.636 234.237 A 2.317 2.317 0 0 0 131.145 235.125 A 3.511 3.511 0 0 0 131.739 235.173 A 3.283 3.283 0 0 0 132.606 235.066 A 2.285 2.285 0 0 0 133.847 234.241 A 3.035 3.035 0 0 0 134.319 233.32 Q 134.458 232.895 134.519 232.376 A 7.446 7.446 0 0 0 134.567 231.512 A 7.053 7.053 0 0 0 134.5 230.506 Q 134.347 229.45 133.847 228.808 A 2.325 2.325 0 0 0 132.401 227.945 A 3.565 3.565 0 0 0 131.722 227.884 A 3.364 3.364 0 0 0 130.885 227.982 A 2.251 2.251 0 0 0 129.627 228.795 A 2.923 2.923 0 0 0 129.173 229.673 Q 128.921 230.433 128.921 231.512 Z" id="front_labelLayer" stroke="#777777" fill="#777777" style="stroke:#777777;fill:#777777" vector-effect="non-scaling-stroke"/><path d="M 301.9 273.141 L 301.9 268 L 331.7 268 L 331.7 273.141 L 331.759 273.2 L 361.841 273.2 L 361.9 273.141 L 361.9 268 L 391.7 268 L 391.7 273.141 L 391.759 273.2 L 421.841 273.2 L 421.9 273.141 L 421.9 268 L 451.7 268 L 451.7 273.141 L 451.759 273.2 L 481.841 273.2 L 481.9 273.141 L 481.9 268 L 511.7 268 L 511.7 273.141 L 511.759 273.2 L 538.141 273.2 L 538.2 273.141 L 538.2 244.7 L 543.341 244.7 L 543.4 244.641 L 543.4 214.559 L 543.341 214.5 L 538.2 214.5 L 538.2 186.059 L 538.141 186 L 275.459 186 L 275.4 186.059 L 275.4 214.5 L 270.259 214.5 L 270.2 214.559 L 270.2 244.641 L 270.259 244.7 L 275.4 244.7 L 275.4 273.141 L 275.459 273.2 L 301.841 273.2 L 301.9 273.141 Z" id="left_outsideCutPath" stroke="#FF0000" stroke-width="0.1" style="stroke:#FF0000;stroke-width:0.1" vector-effect="non-scaling-stroke"/><path d="M 413.004 226.854 L 413.004 227.952 L 410.628 227.952 L 410.628 236.187 L 409.214 236.187 L 409.214 227.952 L 407.545 227.952 L 407.545 227.313 L 409.214 226.802 L 409.214 226.283 A 5.729 5.729 0 0 1 409.348 224.985 Q 409.762 223.214 411.454 222.907 A 4.297 4.297 0 0 1 412.22 222.843 Q 412.961 222.843 413.957 223.141 L 413.591 224.273 Q 412.774 224.009 412.195 224.009 Q 411.394 224.009 411.011 224.542 Q 410.628 225.074 410.628 226.249 L 410.628 226.854 L 413.004 226.854 Z M 406.387 230.881 L 406.387 231.776 L 399.958 231.776 A 5.674 5.674 0 0 0 400.057 232.725 Q 400.159 233.243 400.364 233.651 A 2.654 2.654 0 0 0 400.788 234.271 A 2.569 2.569 0 0 0 402.137 235.031 A 3.892 3.892 0 0 0 403.006 235.122 A 7.466 7.466 0 0 0 405.802 234.568 A 8.555 8.555 0 0 0 405.987 234.492 L 405.987 235.752 A 8.486 8.486 0 0 1 405.213 236.045 A 6.49 6.49 0 0 1 404.569 236.216 A 5.934 5.934 0 0 1 403.98 236.307 Q 403.516 236.357 402.955 236.357 A 5.493 5.493 0 0 1 401.581 236.194 A 3.89 3.89 0 0 1 399.689 235.097 A 4.16 4.16 0 0 1 398.694 233.269 Q 398.521 232.621 398.497 231.852 A 8.074 8.074 0 0 1 398.493 231.597 A 7.423 7.423 0 0 1 398.63 230.125 Q 398.884 228.873 399.604 228.012 A 3.622 3.622 0 0 1 402.244 226.695 A 4.997 4.997 0 0 1 402.589 226.683 Q 404.343 226.683 405.365 227.837 A 3.953 3.953 0 0 1 406.261 229.643 A 5.753 5.753 0 0 1 406.387 230.881 Z M 418.999 235.02 L 418.999 236.101 Q 418.769 236.212 418.322 236.285 A 6.127 6.127 0 0 1 417.922 236.337 Q 417.707 236.357 417.517 236.357 A 3.692 3.692 0 0 1 416.429 236.211 Q 415.233 235.841 414.92 234.542 A 4.443 4.443 0 0 1 414.809 233.504 L 414.809 227.952 L 413.472 227.952 L 413.472 227.271 L 414.809 226.683 L 415.405 224.691 L 416.223 224.691 L 416.223 226.854 L 418.931 226.854 L 418.931 227.952 L 416.223 227.952 L 416.223 233.445 A 2.847 2.847 0 0 0 416.264 233.945 Q 416.313 234.219 416.42 234.436 A 1.371 1.371 0 0 0 416.623 234.739 A 1.313 1.313 0 0 0 417.43 235.169 A 1.889 1.889 0 0 0 417.721 235.19 A 4.642 4.642 0 0 0 418.401 235.142 A 4.282 4.282 0 0 0 418.445 235.135 A 7.647 7.647 0 0 0 418.649 235.1 Q 418.858 235.061 418.999 235.02 Z M 396.015 222.936 L 396.015 236.187 L 394.601 236.187 L 394.601 222.936 L 396.015 222.936 Z M 399.992 230.626 L 404.871 230.626 Q 404.871 229.289 404.275 228.578 A 1.937 1.937 0 0 0 403.109 227.914 A 2.905 2.905 0 0 0 402.572 227.867 A 2.787 2.787 0 0 0 401.767 227.978 A 2.153 2.153 0 0 0 400.779 228.599 Q 400.111 229.332 399.992 230.626 Z" id="left_labelLayer" stroke="#777777" fill="#777777" style="stroke:#777777;fill:#777777" vector-effect="non-scaling-stroke"/><path d="M 28.7 182.941 L 28.7 177.8 L 58.5 177.8 L 58.5 182.941 L 58.559 183 L 88.641 183 L 88.7 182.941 L 88.7 177.8 L 118.5 177.8 L 118.5 182.941 L 118.559 183 L 148.641 183 L 148.7 182.941 L 148.7 177.8 L 178.5 177.8 L 178.5 182.941 L 178.559 183 L 208.641 183 L 208.7 182.941 L 208.7 177.8 L 238.5 177.8 L 238.5 182.941 L 238.559 183 L 267.141 183 L 267.2 182.941 L 267.2 154.359 L 267.141 154.3 L 262 154.3 L 262 124.5 L 267.141 124.5 L 267.2 124.441 L 267.2 95.859 L 267.141 95.8 L 0.059 95.8 L 0 95.859 L 0 124.441 L 0.059 124.5 L 5.2 124.5 L 5.2 154.3 L 0.059 154.3 L 0 154.359 L 0 182.941 L 0.059 183 L 28.641 183 L 28.7 182.941 Z" id="back_outsideCutPath" stroke="#FF0000" stroke-width="0.1" style="stroke:#FF0000;stroke-width:0.1" vector-effect="non-scaling-stroke"/><path d="M 145.539 141.163 L 145.607 141.163 Q 145.887 140.765 146.392 140.178 A 30.374 30.374 0 0 1 146.723 139.8 L 149.737 136.607 L 151.415 136.607 L 147.634 140.584 L 151.679 145.94 L 149.967 145.94 L 146.671 141.529 L 145.607 142.448 L 145.607 145.94 L 144.21 145.94 L 144.21 132.69 L 145.607 132.69 L 145.607 139.715 Q 145.607 140.175 145.541 141.127 A 58.423 58.423 0 0 1 145.539 141.163 Z M 116.935 144.739 L 116.833 144.739 L 116.535 145.94 L 115.521 145.94 L 115.521 132.69 L 116.935 132.69 L 116.935 135.908 A 29.472 29.472 0 0 1 116.919 136.904 Q 116.903 137.375 116.871 137.794 A 17.634 17.634 0 0 1 116.867 137.85 L 116.935 137.85 A 3.214 3.214 0 0 1 119.281 136.488 A 4.828 4.828 0 0 1 119.864 136.453 A 4.32 4.32 0 0 1 121.08 136.616 A 3.234 3.234 0 0 1 122.721 137.71 Q 123.536 138.715 123.699 140.39 A 9.073 9.073 0 0 1 123.739 141.265 Q 123.739 143.564 122.713 144.837 A 3.346 3.346 0 0 1 120.334 146.088 A 4.794 4.794 0 0 1 119.864 146.11 A 4.288 4.288 0 0 1 118.787 145.979 A 3.731 3.731 0 0 1 118.199 145.774 A 3.131 3.131 0 0 1 116.935 144.739 Z M 132.995 145.94 L 131.948 145.94 L 131.667 144.611 L 131.599 144.611 A 5.86 5.86 0 0 1 131.125 145.142 Q 130.665 145.594 130.207 145.799 Q 129.513 146.11 128.474 146.11 Q 127.086 146.11 126.298 145.395 A 2.323 2.323 0 0 1 125.597 144.17 A 3.557 3.557 0 0 1 125.51 143.36 Q 125.51 140.624 129.745 140.408 A 13.808 13.808 0 0 1 130.032 140.396 L 131.616 140.345 L 131.616 139.766 Q 131.616 139.095 131.439 138.638 A 1.578 1.578 0 0 0 131.143 138.144 A 1.435 1.435 0 0 0 130.555 137.76 Q 130.169 137.62 129.632 137.62 A 4.602 4.602 0 0 0 128.573 137.752 Q 128.087 137.867 127.558 138.082 A 9.467 9.467 0 0 0 126.992 138.335 L 126.558 137.254 A 6.518 6.518 0 0 1 127.816 136.737 A 7.418 7.418 0 0 1 128.069 136.666 Q 128.891 136.453 129.717 136.453 A 5.97 5.97 0 0 1 130.626 136.518 Q 131.623 136.672 132.191 137.194 A 2.238 2.238 0 0 1 132.768 138.085 Q 132.903 138.451 132.958 138.906 A 5.562 5.562 0 0 1 132.995 139.57 L 132.995 145.94 Z M 142.133 136.922 L 141.698 138.123 A 6.289 6.289 0 0 0 141.016 137.896 A 7.511 7.511 0 0 0 140.676 137.812 Q 140.123 137.688 139.697 137.688 A 3.136 3.136 0 0 0 138.424 137.928 Q 136.853 138.62 136.853 141.316 Q 136.853 142.445 137.152 143.229 A 2.932 2.932 0 0 0 137.547 143.956 Q 138.241 144.875 139.604 144.875 Q 140.77 144.875 141.996 144.373 L 141.996 145.625 A 4.021 4.021 0 0 1 141.013 145.973 Q 140.558 146.074 140.03 146.101 A 7.752 7.752 0 0 1 139.638 146.11 A 5.283 5.283 0 0 1 138.352 145.963 A 3.582 3.582 0 0 1 136.5 144.863 Q 135.54 143.785 135.409 141.936 A 8.547 8.547 0 0 1 135.388 141.333 Q 135.388 138.991 136.517 137.714 Q 137.645 136.436 139.731 136.436 A 6.379 6.379 0 0 1 141.077 136.581 A 7.056 7.056 0 0 1 141.469 136.677 Q 141.869 136.787 142.133 136.922 Z M 119.66 137.637 A 3.972 3.972 0 0 0 118.891 137.707 Q 118.452 137.793 118.12 137.988 A 1.88 1.88 0 0 0 117.574 138.467 Q 116.935 139.298 116.935 141.265 Q 116.935 143.232 117.591 144.079 Q 118.178 144.839 119.403 144.917 A 4.545 4.545 0 0 0 119.694 144.927 A 2.818 2.818 0 0 0 120.494 144.819 A 2.033 2.033 0 0 0 121.636 143.977 Q 122.092 143.299 122.222 142.197 A 8.1 8.1 0 0 0 122.274 141.248 Q 122.274 139.52 121.7 138.627 A 2.345 2.345 0 0 0 121.636 138.531 A 2.061 2.061 0 0 0 120.323 137.701 A 3.269 3.269 0 0 0 119.66 137.637 Z M 131.582 142.193 L 131.582 141.35 L 130.168 141.41 A 10.379 10.379 0 0 0 129.339 141.47 Q 128.521 141.565 128.008 141.791 A 2.171 2.171 0 0 0 127.737 141.933 A 1.508 1.508 0 0 0 127.018 143.028 A 2.233 2.233 0 0 0 126.992 143.377 A 2.02 2.02 0 0 0 127.042 143.84 Q 127.126 144.196 127.351 144.441 A 1.259 1.259 0 0 0 127.456 144.543 A 1.539 1.539 0 0 0 128.032 144.849 Q 128.261 144.917 128.534 144.936 A 3.179 3.179 0 0 0 128.755 144.944 A 3.892 3.892 0 0 0 129.595 144.858 Q 130.334 144.695 130.828 144.22 A 2.367 2.367 0 0 0 131.489 143.038 Q 131.58 142.657 131.582 142.207 A 4.477 4.477 0 0 0 131.582 142.193 Z" id="back_labelLayer" stroke="#777777" fill="#777777" style="stroke:#777777;fill:#777777" vector-effect="non-scaling-stroke"/><path d="M 301.9 182.941 L 301.9 177.8 L 331.7 177.8 L 331.7 182.941 L 331.759 183 L 361.841 183 L 361.9 182.941 L 361.9 177.8 L 391.7 177.8 L 391.7 182.941 L 391.759 183 L 421.841 183 L 421.9 182.941 L 421.9 177.8 L 451.7 177.8 L 451.7 182.941 L 451.759 183 L 481.841 183 L 481.9 182.941 L 481.9 177.8 L 511.7 177.8 L 511.7 182.941 L 511.759 183 L 538.141 183 L 538.2 182.941 L 538.2 154.5 L 543.341 154.5 L 543.4 154.441 L 543.4 124.359 L 543.341 124.3 L 538.2 124.3 L 538.2 95.859 L 538.141 95.8 L 275.459 95.8 L 275.4 95.859 L 275.4 124.3 L 270.259 124.3 L 270.2 124.359 L 270.2 154.441 L 270.259 154.5 L 275.4 154.5 L 275.4 182.941 L 275.459 183 L 301.841 183 L 301.9 182.941 Z" id="right_outsideCutPath" stroke="#FF0000" stroke-width="0.1" style="stroke:#FF0000;stroke-width:0.1" vector-effect="non-scaling-stroke"/><path d="M 417.645 143.93 L 416.231 143.93 L 416.231 137.893 A 3.996 3.996 0 0 0 416.185 137.266 Q 416.077 136.585 415.712 136.19 A 1.594 1.594 0 0 0 415.058 135.772 Q 414.801 135.682 414.485 135.648 A 3.748 3.748 0 0 0 414.085 135.628 A 4.278 4.278 0 0 0 413.285 135.697 Q 412.842 135.782 412.501 135.969 A 1.979 1.979 0 0 0 411.935 136.428 Q 411.316 137.16 411.263 138.746 A 9.123 9.123 0 0 0 411.258 139.051 L 411.258 143.93 L 409.844 143.93 L 409.844 130.68 L 411.258 130.68 L 411.258 134.691 Q 411.258 135.212 411.223 135.605 A 5.529 5.529 0 0 1 411.19 135.892 L 411.275 135.892 A 2.824 2.824 0 0 1 412.264 134.939 A 3.45 3.45 0 0 1 412.463 134.831 Q 413.234 134.444 414.221 134.444 A 5.735 5.735 0 0 1 415.185 134.519 Q 415.697 134.607 416.103 134.796 A 2.548 2.548 0 0 1 416.789 135.257 Q 417.645 136.07 417.645 137.842 L 417.645 143.93 Z M 404.701 134.597 L 407.928 134.597 L 407.928 135.491 L 406.2 135.696 A 2.297 2.297 0 0 1 406.399 135.991 Q 406.486 136.144 406.565 136.327 A 4.358 4.358 0 0 1 406.625 136.475 A 2.72 2.72 0 0 1 406.786 137.124 A 3.492 3.492 0 0 1 406.813 137.561 Q 406.813 138.932 405.876 139.749 Q 404.939 140.567 403.304 140.567 Q 402.887 140.567 402.521 140.498 A 2.515 2.515 0 0 0 402.115 140.761 Q 401.618 141.162 401.618 141.699 A 0.733 0.733 0 0 0 401.655 141.939 Q 401.723 142.136 401.914 142.254 A 0.785 0.785 0 0 0 401.933 142.265 Q 402.187 142.413 402.734 142.442 A 5.377 5.377 0 0 0 403.015 142.449 L 404.667 142.449 A 5.786 5.786 0 0 1 405.546 142.511 Q 406.437 142.648 406.996 143.087 A 2.068 2.068 0 0 1 407.764 144.405 A 3.106 3.106 0 0 1 407.809 144.944 A 3.061 3.061 0 0 1 407.634 146.002 Q 407.343 146.798 406.566 147.307 Q 405.699 147.874 404.277 148.045 A 11.204 11.204 0 0 1 402.938 148.12 A 7.92 7.92 0 0 1 401.876 148.053 Q 400.797 147.907 400.115 147.439 A 2.253 2.253 0 0 1 399.389 146.651 Q 399.123 146.158 399.123 145.514 Q 399.123 144.663 399.668 144.041 Q 400.213 143.419 401.201 143.198 Q 400.843 143.036 400.601 142.695 A 1.311 1.311 0 0 1 400.36 141.987 A 1.623 1.623 0 0 1 400.358 141.904 A 1.617 1.617 0 0 1 400.439 141.383 A 1.433 1.433 0 0 1 400.63 141.009 Q 400.836 140.72 401.222 140.445 A 4.441 4.441 0 0 1 401.491 140.269 A 2.478 2.478 0 0 1 400.414 139.407 A 3.072 3.072 0 0 1 400.311 139.255 A 2.922 2.922 0 0 1 399.863 137.847 A 3.567 3.567 0 0 1 399.856 137.62 A 4.084 4.084 0 0 1 399.963 136.654 A 2.687 2.687 0 0 1 400.775 135.257 Q 401.695 134.427 403.381 134.427 A 5.418 5.418 0 0 1 404.098 134.472 A 4.127 4.127 0 0 1 404.701 134.597 Z M 424.84 142.764 L 424.84 143.845 Q 424.61 143.956 424.163 144.028 A 6.127 6.127 0 0 1 423.764 144.08 Q 423.549 144.101 423.359 144.101 A 3.692 3.692 0 0 1 422.271 143.954 Q 421.075 143.585 420.762 142.286 A 4.443 4.443 0 0 1 420.651 141.248 L 420.651 135.696 L 419.314 135.696 L 419.314 135.014 L 420.651 134.427 L 421.247 132.434 L 422.064 132.434 L 422.064 134.597 L 424.772 134.597 L 424.772 135.696 L 422.064 135.696 L 422.064 141.188 A 2.847 2.847 0 0 0 422.105 141.688 Q 422.154 141.962 422.262 142.18 A 1.371 1.371 0 0 0 422.464 142.483 A 1.313 1.313 0 0 0 423.272 142.912 A 1.889 1.889 0 0 0 423.563 142.934 A 4.642 4.642 0 0 0 424.243 142.885 A 4.282 4.282 0 0 0 424.287 142.879 A 7.647 7.647 0 0 0 424.491 142.844 Q 424.7 142.805 424.84 142.764 Z M 394.133 134.529 L 393.937 135.84 Q 393.455 135.734 393.067 135.716 A 3.316 3.316 0 0 0 392.915 135.713 A 2.449 2.449 0 0 0 391.106 136.494 A 3.351 3.351 0 0 0 390.978 136.632 A 3.228 3.228 0 0 0 390.199 138.445 A 4.291 4.291 0 0 0 390.173 138.923 L 390.173 143.93 L 388.76 143.93 L 388.76 134.597 L 389.926 134.597 L 390.088 136.326 L 390.156 136.326 A 4.774 4.774 0 0 1 390.69 135.563 A 3.647 3.647 0 0 1 391.408 134.921 A 2.818 2.818 0 0 1 393.017 134.427 A 6.49 6.49 0 0 1 393.598 134.452 A 4.737 4.737 0 0 1 394.133 134.529 Z M 397.292 134.597 L 397.292 143.93 L 395.879 143.93 L 395.879 134.597 L 397.292 134.597 Z M 404.216 143.717 L 402.521 143.717 Q 401.816 143.717 401.34 143.964 A 1.656 1.656 0 0 0 401.022 144.177 Q 400.486 144.637 400.486 145.497 Q 400.486 146.255 401.124 146.647 Q 401.76 147.037 402.944 147.038 A 7.342 7.342 0 0 0 402.955 147.038 Q 404.545 147.038 405.398 146.614 A 2.348 2.348 0 0 0 405.591 146.506 A 2.062 2.062 0 0 0 406.069 146.106 A 1.545 1.545 0 0 0 406.447 145.063 A 1.913 1.913 0 0 0 406.412 144.683 Q 406.367 144.465 406.267 144.302 A 0.891 0.891 0 0 0 405.978 144.011 A 1.341 1.341 0 0 0 405.66 143.872 Q 405.321 143.768 404.786 143.734 A 8.994 8.994 0 0 0 404.216 143.717 Z M 401.252 137.586 A 2.759 2.759 0 0 0 401.309 138.165 Q 401.386 138.523 401.567 138.792 A 1.512 1.512 0 0 0 401.806 139.068 A 1.827 1.827 0 0 0 402.541 139.467 Q 402.821 139.548 403.155 139.565 A 3.64 3.64 0 0 0 403.347 139.57 A 3.08 3.08 0 0 0 404.153 139.474 Q 405.076 139.223 405.324 138.318 A 2.863 2.863 0 0 0 405.416 137.561 Q 405.416 135.892 404.097 135.547 A 3.074 3.074 0 0 0 403.321 135.457 A 2.966 2.966 0 0 0 402.717 135.515 Q 402.149 135.633 401.789 135.994 Q 401.333 136.449 401.264 137.278 A 3.719 3.719 0 0 0 401.252 137.586 Z M 395.779 131.809 A 1.566 1.566 0 0 0 395.759 132.068 A 1.669 1.669 0 0 0 395.767 132.228 Q 395.781 132.37 395.82 132.487 A 0.73 0.73 0 0 0 395.998 132.779 A 0.793 0.793 0 0 0 396.285 132.962 A 0.898 0.898 0 0 0 396.594 133.013 A 0.825 0.825 0 0 0 397.182 132.779 Q 397.429 132.545 397.429 132.068 A 1.617 1.617 0 0 0 397.422 131.915 Q 397.408 131.775 397.37 131.661 A 0.714 0.714 0 0 0 397.182 131.361 Q 396.935 131.131 396.594 131.131 A 1.079 1.079 0 0 0 396.523 131.134 A 0.817 0.817 0 0 0 395.998 131.357 Q 395.828 131.517 395.779 131.809 Z" id="right_labelLayer" stroke="#777777" fill="#777777" style="stroke:#777777;fill:#777777" vector-effect="non-scaling-stroke"/><path d="M 605.1 273.141 L 605.1 268 L 634.9 268 L 634.9 273.141 L 634.959 273.2 L 665.041 273.2 L 665.1 273.141 L 665.1 268 L 694.9 268 L 694.9 273.141 L 694.959 273.2 L 725.041 273.2 L 725.1 273.141 L 725.1 268 L 754.9 268 L 754.9 273.141 L 754.959 273.2 L 785.041 273.2 L 785.1 273.141 L 785.1 268 L 808.341 268 L 808.4 267.941 L 808.4 241.7 L 813.541 241.7 L 813.6 241.641 L 813.6 211.559 L 813.541 211.5 L 808.4 211.5 L 808.4 181.7 L 813.541 181.7 L 813.6 181.641 L 813.6 151.559 L 813.541 151.5 L 808.4 151.5 L 808.4 121.7 L 813.541 121.7 L 813.6 121.641 L 813.6 91.559 L 813.541 91.5 L 808.4 91.5 L 808.4 61.7 L 813.541 61.7 L 813.6 61.641 L 813.6 31.559 L 813.541 31.5 L 808.4 31.5 L 808.4 5.259 L 808.341 5.2 L 785.1 5.2 L 785.1 0.059 L 785.041 0 L 754.959 0 L 754.9 0.059 L 754.9 5.2 L 725.1 5.2 L 725.1 0.059 L 725.041 0 L 694.959 0 L 694.9 0.059 L 694.9 5.2 L 665.1 5.2 L 665.1 0.059 L 665.041 0 L 634.959 0 L 634.9 0.059 L 634.9 5.2 L 605.1 5.2 L 605.1 0.059 L 605.041 0 L 574.959 0 L 574.9 0.059 L 574.9 5.2 L 551.659 5.2 L 551.6 5.259 L 551.6 31.5 L 546.459 31.5 L 546.4 31.559 L 546.4 61.641 L 546.459 61.7 L 551.6 61.7 L 551.6 91.5 L 546.459 91.5 L 546.4 91.559 L 546.4 121.641 L 546.459 121.7 L 551.6 121.7 L 551.6 151.5 L 546.459 151.5 L 546.4 151.559 L 546.4 181.641 L 546.459 181.7 L 551.6 181.7 L 551.6 211.5 L 546.459 211.5 L 546.4 211.559 L 546.4 241.641 L 546.459 241.7 L 551.6 241.7 L 551.6 267.941 L 551.659 268 L 574.9 268 L 574.9 273.141 L 574.959 273.2 L 605.041 273.2 L 605.1 273.141 Z" id="bottom_outsideCutPath" stroke="#FF0000" stroke-width="0.1" style="stroke:#FF0000;stroke-width:0.1" vector-effect="non-scaling-stroke"/><path d="M 767.91 156.639 L 763.578 156.639 L 763.578 138.034 A 12.778 12.778 0 0 0 763.449 136.156 Q 763.306 135.196 763.005 134.422 A 5.235 5.235 0 0 0 762.117 132.907 Q 760.839 131.412 758.322 131.225 A 10.055 10.055 0 0 0 757.577 131.198 Q 754.74 131.198 752.944 132.34 A 5.736 5.736 0 0 0 751.601 133.52 Q 749.679 135.832 749.67 140.625 A 23.975 23.975 0 0 0 749.67 140.67 L 749.67 156.639 L 745.339 156.639 L 745.339 138.034 A 12.778 12.778 0 0 0 745.21 136.156 Q 745.067 135.196 744.765 134.422 A 5.235 5.235 0 0 0 743.877 132.907 Q 742.613 131.428 740.117 131.229 A 10.143 10.143 0 0 0 739.311 131.198 Q 736.47 131.198 734.691 132.386 A 5.677 5.677 0 0 0 733.349 133.638 A 7.264 7.264 0 0 0 732.271 135.683 Q 731.457 137.988 731.457 141.635 L 731.457 156.639 L 727.125 156.639 L 727.125 128.041 L 730.648 128.041 L 731.352 131.955 L 731.561 131.955 A 8.513 8.513 0 0 1 735.019 128.693 A 10.284 10.284 0 0 1 739.081 127.553 A 12.421 12.421 0 0 1 740.015 127.519 A 14.182 14.182 0 0 1 743.208 127.851 Q 747.261 128.789 748.783 132.372 L 748.992 132.372 A 9.044 9.044 0 0 1 752.398 128.99 A 10.866 10.866 0 0 1 752.697 128.823 A 10.963 10.963 0 0 1 756.719 127.6 A 13.67 13.67 0 0 1 758.229 127.519 A 15.057 15.057 0 0 1 760.96 127.75 Q 762.478 128.031 763.664 128.651 A 7.138 7.138 0 0 1 765.496 130.011 A 7.459 7.459 0 0 1 767.098 132.63 Q 767.529 133.785 767.731 135.223 A 19.867 19.867 0 0 1 767.91 137.982 L 767.91 156.639 Z M 596.422 152.96 L 596.108 152.96 L 595.195 156.639 L 592.09 156.639 L 592.09 116.037 L 596.422 116.037 L 596.422 125.901 A 90.31 90.31 0 0 1 596.373 128.952 Q 596.324 130.395 596.226 131.68 A 54.064 54.064 0 0 1 596.213 131.85 L 596.422 131.85 A 9.848 9.848 0 0 1 603.61 127.675 A 14.794 14.794 0 0 1 605.398 127.571 A 13.239 13.239 0 0 1 609.124 128.068 A 9.91 9.91 0 0 1 614.152 131.42 Q 616.649 134.502 617.147 139.634 A 27.803 27.803 0 0 1 617.27 142.314 Q 617.27 147.285 615.705 150.691 A 12.175 12.175 0 0 1 614.126 153.26 A 10.254 10.254 0 0 1 606.838 157.092 A 14.691 14.691 0 0 1 605.398 157.161 A 13.139 13.139 0 0 1 602.096 156.759 A 11.432 11.432 0 0 1 600.297 156.13 A 9.594 9.594 0 0 1 596.422 152.96 Z M 670.267 153.064 L 670.267 156.378 A 4.261 4.261 0 0 1 669.762 156.579 Q 669.134 156.787 668.192 156.939 A 18.774 18.774 0 0 1 666.968 157.099 Q 666.391 157.153 665.873 157.16 A 11.104 11.104 0 0 1 665.727 157.161 A 11.313 11.313 0 0 1 662.393 156.712 Q 658.728 155.582 657.769 151.601 A 13.615 13.615 0 0 1 657.429 148.42 L 657.429 131.407 L 653.332 131.407 L 653.332 129.319 L 657.429 127.519 L 659.255 121.413 L 661.76 121.413 L 661.76 128.041 L 670.058 128.041 L 670.058 131.407 L 661.76 131.407 L 661.76 148.237 A 8.722 8.722 0 0 0 661.886 149.769 Q 662.036 150.61 662.366 151.275 A 4.202 4.202 0 0 0 662.987 152.203 A 4.024 4.024 0 0 0 665.46 153.52 A 5.79 5.79 0 0 0 666.353 153.586 A 14.225 14.225 0 0 0 668.437 153.437 A 13.106 13.106 0 0 0 668.571 153.417 A 23.431 23.431 0 0 0 669.196 153.309 Q 669.794 153.198 670.209 153.081 A 6.506 6.506 0 0 0 670.267 153.064 Z M 689.133 153.064 L 689.133 156.378 A 4.261 4.261 0 0 1 688.627 156.579 Q 688 156.787 687.058 156.939 A 18.774 18.774 0 0 1 685.834 157.099 Q 685.257 157.153 684.739 157.16 A 11.104 11.104 0 0 1 684.592 157.161 A 11.313 11.313 0 0 1 681.258 156.712 Q 677.594 155.582 676.635 151.601 A 13.615 13.615 0 0 1 676.295 148.42 L 676.295 131.407 L 672.198 131.407 L 672.198 129.319 L 676.295 127.519 L 678.121 121.413 L 680.626 121.413 L 680.626 128.041 L 688.924 128.041 L 688.924 131.407 L 680.626 131.407 L 680.626 148.237 A 8.722 8.722 0 0 0 680.752 149.769 Q 680.902 150.61 681.232 151.275 A 4.202 4.202 0 0 0 681.853 152.203 A 4.024 4.024 0 0 0 684.326 153.52 A 5.79 5.79 0 0 0 685.219 153.586 A 14.225 14.225 0 0 0 687.303 153.437 A 13.106 13.106 0 0 0 687.437 153.417 A 23.431 23.431 0 0 0 688.062 153.309 Q 688.66 153.198 689.075 153.081 A 6.506 6.506 0 0 0 689.133 153.064 Z M 646 153.234 A 12.083 12.083 0 0 0 647.438 151.257 Q 649.522 147.693 649.522 142.314 A 25.422 25.422 0 0 0 649.513 141.626 Q 649.449 139.245 648.933 137.223 A 13.488 13.488 0 0 0 645.987 131.511 A 11.339 11.339 0 0 0 640.722 128.116 A 14.555 14.555 0 0 0 636.449 127.519 A 16.823 16.823 0 0 0 633.428 127.778 A 11.457 11.457 0 0 0 626.743 131.42 A 11.967 11.967 0 0 0 625.273 133.458 Q 624.14 135.431 623.641 137.964 A 22.49 22.49 0 0 0 623.246 142.314 A 21.669 21.669 0 0 0 623.518 145.824 A 16.024 16.024 0 0 0 624.864 150.194 A 14.237 14.237 0 0 0 625.179 150.812 A 11.727 11.727 0 0 0 629.456 155.361 A 12.061 12.061 0 0 0 632.225 156.592 A 13.91 13.91 0 0 0 636.267 157.161 A 16.82 16.82 0 0 0 639.204 156.916 A 11.548 11.548 0 0 0 646 153.234 Z M 716.009 153.234 A 12.083 12.083 0 0 0 717.448 151.257 Q 719.532 147.693 719.532 142.314 A 25.422 25.422 0 0 0 719.523 141.626 Q 719.458 139.245 718.943 137.223 A 13.488 13.488 0 0 0 715.996 131.511 A 11.339 11.339 0 0 0 710.732 128.116 A 14.555 14.555 0 0 0 706.459 127.519 A 16.823 16.823 0 0 0 703.437 127.778 A 11.457 11.457 0 0 0 696.752 131.42 A 11.967 11.967 0 0 0 695.282 133.458 Q 694.15 135.431 693.65 137.964 A 22.49 22.49 0 0 0 693.255 142.314 A 21.669 21.669 0 0 0 693.528 145.824 A 16.024 16.024 0 0 0 694.873 150.194 A 14.237 14.237 0 0 0 695.189 150.812 A 11.727 11.727 0 0 0 699.466 155.361 A 12.061 12.061 0 0 0 702.234 156.592 A 13.91 13.91 0 0 0 706.276 157.161 A 16.82 16.82 0 0 0 709.213 156.916 A 11.548 11.548 0 0 0 716.009 153.234 Z M 627.734 142.314 A 21.935 21.935 0 0 0 627.943 145.447 Q 628.173 147.038 628.657 148.327 A 9.087 9.087 0 0 0 629.926 150.664 A 7.099 7.099 0 0 0 634.55 153.387 A 10.758 10.758 0 0 0 636.371 153.534 A 10.061 10.061 0 0 0 639.025 153.204 A 7.002 7.002 0 0 0 642.829 150.677 A 9.299 9.299 0 0 0 644.277 147.857 Q 644.703 146.553 644.889 144.963 A 22.817 22.817 0 0 0 645.034 142.314 Q 645.034 138.815 644.127 136.396 A 8.918 8.918 0 0 0 642.829 134.029 A 7.126 7.126 0 0 0 638.399 131.386 A 10.925 10.925 0 0 0 636.319 131.198 A 10.309 10.309 0 0 0 633.752 131.499 A 6.899 6.899 0 0 0 629.9 133.99 Q 628.341 136 627.904 139.429 A 22.889 22.889 0 0 0 627.734 142.314 Z M 697.744 142.314 A 21.935 21.935 0 0 0 697.952 145.447 Q 698.183 147.038 698.667 148.327 A 9.087 9.087 0 0 0 699.935 150.664 A 7.099 7.099 0 0 0 704.559 153.387 A 10.758 10.758 0 0 0 706.381 153.534 A 10.061 10.061 0 0 0 709.035 153.204 A 7.002 7.002 0 0 0 712.839 150.677 A 9.299 9.299 0 0 0 714.287 147.857 Q 714.713 146.553 714.899 144.963 A 22.817 22.817 0 0 0 715.044 142.314 Q 715.044 138.815 714.136 136.396 A 8.918 8.918 0 0 0 712.839 134.029 A 7.126 7.126 0 0 0 708.409 131.386 A 10.925 10.925 0 0 0 706.328 131.198 A 10.309 10.309 0 0 0 703.762 131.499 A 6.899 6.899 0 0 0 699.909 133.99 Q 698.35 136 697.914 139.429 A 22.889 22.889 0 0 0 697.744 142.314 Z M 604.772 131.198 A 12.172 12.172 0 0 0 602.414 131.41 Q 599.77 131.933 598.379 133.742 A 7.415 7.415 0 0 0 597.305 135.787 Q 596.581 137.816 596.45 140.902 A 33.373 33.373 0 0 0 596.422 142.314 A 28.64 28.64 0 0 0 596.563 145.274 Q 596.875 148.261 597.871 150.078 A 6.533 6.533 0 0 0 598.431 150.938 A 6.284 6.284 0 0 0 601.619 153.089 Q 602.684 153.423 603.984 153.506 A 13.928 13.928 0 0 0 604.876 153.534 A 8.635 8.635 0 0 0 607.329 153.206 A 6.229 6.229 0 0 0 610.825 150.625 Q 612.223 148.546 612.623 145.17 A 24.82 24.82 0 0 0 612.782 142.262 A 25.591 25.591 0 0 0 612.628 139.346 Q 612.232 135.907 610.825 133.938 A 6.317 6.317 0 0 0 606.804 131.393 A 10.018 10.018 0 0 0 604.772 131.198 Z" id="bottom_labelLayer" stroke="#777777" fill="#777777" style="stroke:#777777;fill:#777777" vector-effect="non-scaling-stroke"/></g></svg>