<svg width="666.3mm" height="563.2mm" viewBox="0 0 666.3 563.2" xmlns="http://www.w3.org/2000/svg" version="1.1" preserveAspectRatio="xMidYMid meet"><g id="svgGroup" stroke-linecap="round" fill-rule="evenodd" font-size="9pt" stroke="#000" stroke-width="0.25mm" fill="none" style="stroke:#000;stroke-width:0.25mm;fill:none"><path d="M 35.1 563.171 L 35.1 558.2 L 65 558.2 L 65 563.171 L 65.029 563.2 L 95.071 563.2 L 95.1 563.171 L 95.1 558.2 L 125 558.2 L 125 563.171 L 125.029 563.2 L 155.071 563.2 L 155.1 563.171 L 155.1 558.2 L 185 558.2 L 185 563.171 L 185.029 563.2 L 215.071 563.2 L 215.1 563.171 L 215.1 558.2 L 245 558.2 L 245 563.171 L 245.029 563.2 L 280.071 563.2 L 280.1 563.171 L 280.1 528.129 L 280.071 528.1 L 275.1 528.1 L 275.1 498.2 L 280.071 498.2 L 280.1 498.171 L 280.1 468.129 L 280.071 468.1 L 275.1 468.1 L 275.1 438.2 L 280.071 438.2 L 280.1 438.171 L 280.1 408.129 L 280.071 408.1 L 275.1 408.1 L 275.1 378.2 L 280.071 378.2 L 280.1 378.171 L 280.1 348.129 L 280.071 348.1 L 275.1 348.1 L 275.1 318.2 L 280.071 318.2 L 280.1 318.171 L 280.1 283.129 L 280.071 283.1 L 0.029 283.1 L 0 283.129 L 0 318.171 L 0.029 318.2 L 5 318.2 L 5 348.1 L 0.029 348.1 L 0 348.129 L 0 378.171 L 0.029 378.2 L 5 378.2 L 5 408.1 L 0.029 408.1 L 0 408.129 L 0 438.171 L 0.029 438.2 L 5 438.2 L 5 468.1 L 0.029 468.1 L 0 468.129 L 0 498.171 L 0.029 498.2 L 5 498.2 L 5 528.1 L 0.029 528.1 L 0 528.129 L 0 563.171 L 0.029 563.2 L 35.071 563.2 L 35.1 563.171 Z" id="front_outsideCutPath" stroke="#FF0000" stroke-width="0.1" style="stroke:#FF0000;stroke-width:0.1" vector-effect="non-scaling-stroke"/><path d="M 318.2 563.171 L 318.2 558.2 L 348.1 558.2 L 348.1 563.171 L 348.129 563.2 L 378.171 563.2 L 378.2 563.171 L 378.2 528.2 L 383.171 528.2 L 383.2 528.171 L 383.2 498.129 L 383.171 498.1 L 378.2 498.1 L 378.2 468.2 L 383.171 468.2 L 383.2 468.171 L 383.2 438.129 L 383.171 438.1 L 378.2 438.1 L 378.2 408.2 L 383.171 408.2 L 383.2 408.171 L 383.2 378.129 L 383.171 378.1 L 378.2 378.1 L 378.2 348.2 L 383.171 348.2 L 383.2 348.171 L 383.2 318.129 L 383.171 318.1 L 378.2 318.1 L 378.2 283.129 L 378.171 283.1 L 288.129 283.1 L 288.1 283.129 L 288.1 318.1 L 283.129 318.1 L 283.1 318.129 L 283.1 348.171 L 283.129 348.2 L 288.1 348.2 L 288.1 378.1 L 283.129 378.1 L 283.1 378.129 L 283.1 408.171 L 283.129 408.2 L 288.1 408.2 L 288.1 438.1 L 283.129 438.1 L 283.1 438.129 L 283.1 468.171 L 283.129 468.2 L 288.1 468.2 L 288.1 498.1 L 283.129 498.1 L 283.1 498.129 L 283.1 528.171 L 283.129 528.2 L 288.1 528.2 L 288.1 563.171 L 288.129 563.2 L 318.171 563.2 L 318.2 563.171 Z" id="left_outsideCutPath" stroke="#FF0000" stroke-width="0.1" style="stroke:#FF0000;stroke-width:0.1" vector-effect="non-scaling-stroke"/><path d="M 35.1 280.071 L 35.1 275.1 L 65 275.1 L 65 280.071 L 65.029 280.1 L 95.071 280.1 L 95.1 280.071 L 95.1 275.1 L 125 275.1 L 125 280.071 L 125.029 280.1 L 155.071 280.1 L 155.1 280.071 L 155.1 275.1 L 185 275.1 L 185 280.071 L 185.029 280.1 L 215.071 280.1 L 215.1 280.071 L 215.1 275.1 L 245 275.1 L 245 280.071 L 245.029 280.1 L 280.071 280.1 L 280.1 280.071 L 280.1 245.029 L 280.071 245 L 275.1 245 L 275.1 215.1 L 280.071 215.1 L 280.1 215.071 L 280.1 185.029 L 280.071 185 L 275.1 185 L 275.1 155.1 L 280.071 155.1 L 280.1 155.071 L 280.1 125.029 L 280.071 125 L 275.1 125 L 275.1 95.1 L 280.071 95.1 L 280.1 95.071 L 280.1 65.029 L 280.071 65 L 275.1 65 L 275.1 35.1 L 280.071 35.1 L 280.1 35.071 L 280.1 0.029 L 280.071 0 L 0.029 0 L 0 0.029 L 0 35.071 L 0.029 35.1 L 5 35.1 L 5 65 L 0.029 65 L 0 65.029 L 0 95.071 L 0.029 95.1 L 5 95.1 L 5 125 L 0.029 125 L 0 125.029 L 0 155.071 L 0.029 155.1 L 5 155.1 L 5 185 L 0.029 185 L 0 185.029 L 0 215.071 L 0.029 215.1 L 5 215.1 L 5 245 L 0.029 245 L 0 245.029 L 0 280.071 L 0.029 280.1 L 35.071 280.1 L 35.1 280.071 Z" id="back_outsideCutPath" stroke="#FF0000" stroke-width="0.1" style="stroke:#FF0000;stroke-width:0.1" vector-effect="non-scaling-stroke"/><path d="M 318.2 280.071 L 318.2 275.1 L 348.1 275.1 L 348.1 280.071 L 348.129 280.1 L 378.171 280.1 L 378.2 280.071 L 378.2 245.1 L 383.171 245.1 L 383.2 245.071 L 383.2 215.029 L 383.171 215 L 378.2 215 L 378.2 185.1 L 383.171 185.1 L 383.2 185.071 L 383.2 155.029 L 383.171 155 L 378.2 155 L 378.2 125.1 L 383.171 125.1 L 383.2 125.071 L 383.2 95.029 L 383.171 95 L 378.2 95 L 378.2 65.1 L 383.171 65.1 L 383.2 65.071 L 383.2 35.029 L 383.171 35 L 378.2 35 L 378.2 0.029 L 378.171 0 L 288.129 0 L 288.1 0.029 L 288.1 35 L 283.129 35 L 283.1 35.029 L 283.1 65.071 L 283.129 65.1 L 288.1 65.1 L 288.1 95 L 283.129 95 L 283.1 95.029 L 283.1 125.071 L 283.129 125.1 L 288.1 125.1 L 288.1 155 L 283.129 155 L 283.1 155.029 L 283.1 185.071 L 283.129 185.1 L 288.1 185.1 L 288.1 215 L 283.129 215 L 283.1 215.029 L 283.1 245.071 L 283.129 245.1 L 288.1 245.1 L 288.1 280.071 L 288.129 280.1 L 318.171 280.1 L 318.2 280.071 Z" id="right_outsideCutPath" stroke="#FF0000" stroke-width="0.1" style="stroke:#FF0000;stroke-width:0.1" vector-effect="non-scaling-stroke"/><path d="M 451.3 563.171 L 451.3 558.2 L 481.2 558.2 L 481.2 563.171 L 481.229 563.2 L 511.271 563.2 L 511.3 563.171 L 511.3 558.2 L 541.2 558.2 L 541.2 563.171 L 541.229 563.2 L 571.271 563.2 L 571.3 563.171 L 571.3 558.2 L 601.2 558.2 L 601.2 563.171 L 601.229 563.2 L 631.271 563.2 L 631.3 563.171 L 631.3 558.2 L 661.271 558.2 L 661.3 558.171 L 661.3 528.2 L 666.271 528.2 L 666.3 528.171 L 666.3 498.129 L 666.271 498.1 L 661.3 498.1 L 661.3 468.129 L 661.271 468.1 L 631.3 468.1 L 631.3 463.129 L 631.271 463.1 L 601.229 463.1 L 601.2 463.129 L 601.2 468.1 L 571.3 468.1 L 571.3 463.129 L 571.271 463.1 L 541.229 463.1 L 541.2 463.129 L 541.2 468.1 L 511.3 468.1 L 511.3 463.129 L 511.271 463.1 L 481.229 463.1 L 481.2 463.129 L 481.2 468.1 L 451.3 468.1 L 451.3 463.129 L 451.271 463.1 L 421.229 463.1 L 421.2 463.129 L 421.2 468.1 L 391.229 468.1 L 391.2 468.129 L 391.2 498.1 L 386.229 498.1 L 386.2 498.129 L 386.2 528.171 L 386.229 528.2 L 391.2 528.2 L 391.2 558.171 L 391.229 558.2 L 421.2 558.2 L 421.2 563.171 L 421.229 563.2 L 451.271 563.2 L 451.3 563.171 Z" id="bottom_outsideCutPath" stroke="#FF0000" stroke-width="0.1" style="stroke:#FF0000;stroke-width:0.1" vector-effect="non-scaling-stroke"/></g></svg>