<svg width="636.3mm" height="563.2mm" viewBox="0 0 636.3 563.2" xmlns="http://www.w3.org/2000/svg" version="1.1" preserveAspectRatio="xMidYMid meet"><g id="svgGroup" stroke-linecap="round" fill-rule="evenodd" font-size="9pt" stroke="#000" stroke-width="0.25mm" fill="none" style="stroke:#000;stroke-width:0.25mm;fill:none"><path d="M 35.1 563.171 L 35.1 558 L 65 558 L 65 563.171 L 65.029 563.2 L 95.071 563.2 L 95.1 563.171 L 95.1 558 L 125 558 L 125 563.171 L 125.029 563.2 L 155.071 563.2 L 155.1 563.171 L 155.1 558 L 185 558 L 185 563.171 L 185.029 563.2 L 215.071 563.2 L 215.1 563.171 L 215.1 558 L 245 558 L 245 563.171 L 245.029 563.2 L 280.071 563.2 L 280.1 563.171 L 280.1 528.129 L 280.071 528.1 L 274.9 528.1 L 274.9 498.2 L 280.071 498.2 L 280.1 498.171 L 280.1 468.129 L 280.071 468.1 L 274.9 468.1 L 274.9 438.2 L 280.071 438.2 L 280.1 438.171 L 280.1 408.129 L 280.071 408.1 L 274.9 408.1 L 274.9 378.2 L 280.071 378.2 L 280.1 378.171 L 280.1 348.129 L 280.071 348.1 L 274.9 348.1 L 274.9 318.2 L 280.071 318.2 L 280.1 318.171 L 280.1 283.129 L 280.071 283.1 L 0.029 283.1 L 0 283.129 L 0 318.171 L 0.029 318.2 L 5.2 318.2 L 5.2 348.1 L 0.029 348.1 L 0 348.129 L 0 378.171 L 0.029 378.2 L 5.2 378.2 L 5.2 408.1 L 0.029 408.1 L 0 408.129 L 0 438.171 L 0.029 438.2 L 5.2 438.2 L 5.2 468.1 L 0.029 468.1 L 0 468.129 L 0 498.171 L 0.029 498.2 L 5.2 498.2 L 5.2 528.1 L 0.029 528.1 L 0 528.129 L 0 563.171 L 0.029 563.2 L 35.071 563.2 L 35.1 563.171 Z" id="front_outsideCutPath" stroke="#FF0000" stroke-width="0.1" style="stroke:#FF0000;stroke-width:0.1" vector-effect="non-scaling-stroke"/><path d="M 303.2 563.171 L 303.2 558 L 333.1 558 L 333.1 563.171 L 333.129 563.2 L 347.971 563.2 L 348 563.171 L 348 528.2 L 353.171 528.2 L 353.2 528.171 L 353.2 498.129 L 353.171 498.1 L 348 498.1 L 348 468.2 L 353.171 468.2 L 353.2 468.171 L 353.2 438.129 L 353.171 438.1 L 348 438.1 L 348 408.2 L 353.171 408.2 L 353.2 408.171 L 353.2 378.129 L 353.171 378.1 L 348 378.1 L 348 348.2 L 353.171 348.2 L 353.2 348.171 L 353.2 318.129 L 353.171 318.1 L 348 318.1 L 348 283.129 L 347.971 283.1 L 288.329 283.1 L 288.3 283.129 L 288.3 318.1 L 283.129 318.1 L 283.1 318.129 L 283.1 348.171 L 283.129 348.2 L 288.3 348.2 L 288.3 378.1 L 283.129 378.1 L 283.1 378.129 L 283.1 408.171 L 283.129 408.2 L 288.3 408.2 L 288.3 438.1 L 283.129 438.1 L 283.1 438.129 L 283.1 468.171 L 283.129 468.2 L 288.3 468.2 L 288.3 498.1 L 283.129 498.1 L 283.1 498.129 L 283.1 528.171 L 283.129 528.2 L 288.3 528.2 L 288.3 563.171 L 288.329 563.2 L 303.171 563.2 L 303.2 563.171 Z" id="left_outsideCutPath" stroke="#FF0000" stroke-width="0.1" style="stroke:#FF0000;stroke-width:0.1" vector-effect="non-scaling-stroke"/><path d="M 35.1 280.071 L 35.1 274.9 L 65 274.9 L 65 280.071 L 65.029 280.1 L 95.071 280.1 L 95.1 280.071 L 95.1 274.9 L 125 274.9 L 125 280.071 L 125.029 280.1 L 155.071 280.1 L 155.1 280.071 L 155.1 274.9 L 185 274.9 L 185 280.071 L 185.029 280.1 L 215.071 280.1 L 215.1 280.071 L 215.1 274.9 L 245 274.9 L 245 280.071 L 245.029 280.1 L 280.071 280.1 L 280.1 280.071 L 280.1 245.029 L 280.071 245 L 274.9 245 L 274.9 215.1 L 280.071 215.1 L 280.1 215.071 L 280.1 185.029 L 280.071 185 L 274.9 185 L 274.9 155.1 L 280.071 155.1 L 280.1 155.071 L 280.1 125.029 L 280.071 125 L 274.9 125 L 274.9 95.1 L 280.071 95.1 L 280.1 95.071 L 280.1 65.029 L 280.071 65 L 274.9 65 L 274.9 35.1 L 280.071 35.1 L 280.1 35.071 L 280.1 0.029 L 280.071 0 L 0.029 0 L 0 0.029 L 0 35.071 L 0.029 35.1 L 5.2 35.1 L 5.2 65 L 0.029 65 L 0 65.029 L 0 95.071 L 0.029 95.1 L 5.2 95.1 L 5.2 125 L 0.029 125 L 0 125.029 L 0 155.071 L 0.029 155.1 L 5.2 155.1 L 5.2 185 L 0.029 185 L 0 185.029 L 0 215.071 L 0.029 215.1 L 5.2 215.1 L 5.2 245 L 0.029 245 L 0 245.029 L 0 280.071 L 0.029 280.1 L 35.071 280.1 L 35.1 280.071 Z" id="back_outsideCutPath" stroke="#FF0000" stroke-width="0.1" style="stroke:#FF0000;stroke-width:0.1" vector-effect="non-scaling-stroke"/><path d="M 303.2 280.071 L 303.2 274.9 L 333.1 274.9 L 333.1 280.071 L 333.129 280.1 L 347.971 280.1 L 348 280.071 L 348 245.1 L 353.171 245.1 L 353.2 245.071 L 353.2 215.029 L 353.171 215 L 348 215 L 348 185.1 L 353.171 185.1 L 353.2 185.071 L 353.2 155.029 L 353.171 155 L 348 155 L 348 125.1 L 353.171 125.1 L 353.2 125.071 L 353.2 95.029 L 353.171 95 L 348 95 L 348 65.1 L 353.171 65.1 L 353.2 65.071 L 353.2 35.029 L 353.171 35 L 348 35 L 348 0.029 L 347.971 0 L 288.329 0 L 288.3 0.029 L 288.3 35 L 283.129 35 L 283.1 35.029 L 283.1 65.071 L 283.129 65.1 L 288.3 65.1 L 288.3 95 L 283.129 95 L 283.1 95.029 L 283.1 125.071 L 283.129 125.1 L 288.3 125.1 L 288.3 155 L 283.129 155 L 283.1 155.029 L 283.1 185.071 L 283.129 185.1 L 288.3 185.1 L 288.3 215 L 283.129 215 L 283.1 215.029 L 283.1 245.071 L 283.129 245.1 L 288.3 245.1 L 288.3 280.071 L 288.329 280.1 L 303.171 280.1 L 303.2 280.071 Z" id="right_outsideCutPath" stroke="#FF0000" stroke-width="0.1" style="stroke:#FF0000;stroke-width:0.1" vector-effect="non-scaling-stroke"/><path d="M 421.3 563.171 L 421.3 558 L 451.2 558 L 451.2 563.171 L 451.229 563.2 L 481.271 563.2 L 481.3 563.171 L 481.3 558 L 511.2 558 L 511.2 563.171 L 511.229 563.2 L 541.271 563.2 L 541.3 563.171 L 541.3 558 L 571.2 558 L 571.2 563.171 L 571.229 563.2 L 601.271 563.2 L 601.3 563.171 L 601.3 558 L 631.071 558 L 631.1 557.971 L 631.1 543.2 L 636.271 543.2 L 636.3 543.171 L 636.3 513.129 L 636.271 513.1 L 631.1 513.1 L 631.1 498.329 L 631.071 498.3 L 601.3 498.3 L 601.3 493.129 L 601.271 493.1 L 571.229 493.1 L 571.2 493.129 L 571.2 498.3 L 541.3 498.3 L 541.3 493.129 L 541.271 493.1 L 511.229 493.1 L 511.2 493.129 L 511.2 498.3 L 481.3 498.3 L 481.3 493.129 L 481.271 493.1 L 451.229 493.1 L 451.2 493.129 L 451.2 498.3 L 421.3 498.3 L 421.3 493.129 L 421.271 493.1 L 391.229 493.1 L 391.2 493.129 L 391.2 498.3 L 361.429 498.3 L 361.4 498.329 L 361.4 513.1 L 356.229 513.1 L 356.2 513.129 L 356.2 543.171 L 356.229 543.2 L 361.4 543.2 L 361.4 557.971 L 361.429 558 L 391.2 558 L 391.2 563.171 L 391.229 563.2 L 421.271 563.2 L 421.3 563.171 Z" id="bottom_outsideCutPath" stroke="#FF0000" stroke-width="0.1" style="stroke:#FF0000;stroke-width:0.1" vector-effect="non-scaling-stroke"/></g></svg>