<svg width="813.3mm" height="273.1mm" viewBox="0 0 813.3 273.1" xmlns="http://www.w3.org/2000/svg" version="1.1" preserveAspectRatio="xMidYMid meet"><g id="svgGroup" stroke-linecap="round" fill-rule="evenodd" font-size="9pt" stroke="#000" stroke-width="0.25mm" fill="none" style="stroke:#000;stroke-width:0.25mm;fill:none"><path d="M 36.3 273.071 L 36.3 267.9 L 64 267.9 L 64 273.071 L 64.029 273.1 L 91.871 273.1 L 91.9 273.071 L 91.9 267.9 L 119.6 267.9 L 119.6 273.071 L 119.629 273.1 L 147.471 273.1 L 147.5 273.071 L 147.5 267.9 L 175.2 267.9 L 175.2 273.071 L 175.229 273.1 L 203.071 273.1 L 203.1 273.071 L 203.1 267.9 L 230.8 267.9 L 230.8 273.071 L 230.829 273.1 L 267.071 273.1 L 267.1 273.071 L 267.1 258.429 L 267.071 258.4 L 261.9 258.4 L 261.9 230.7 L 267.071 230.7 L 267.1 230.671 L 267.1 216.029 L 267.071 216 L 0.029 216 L 0 216.029 L 0 230.671 L 0.029 230.7 L 5.2 230.7 L 5.2 258.4 L 0.029 258.4 L 0 258.429 L 0 273.071 L 0.029 273.1 L 36.271 273.1 L 36.3 273.071 Z" id="front_outsideCutPath" stroke="#FF0000" stroke-width="0.1" style="stroke:#FF0000;stroke-width:0.1" vector-effect="non-scaling-stroke"/><path d="M 141.872 248.863 L 140.947 248.863 L 140.947 244.91 A 2.617 2.617 0 0 0 140.917 244.499 Q 140.846 244.053 140.607 243.794 Q 140.331 243.496 139.804 243.44 A 2.454 2.454 0 0 0 139.542 243.426 A 2.802 2.802 0 0 0 139.017 243.472 Q 138.45 243.58 138.136 243.945 A 1.513 1.513 0 0 0 137.873 244.405 Q 137.69 244.892 137.69 245.657 L 137.69 248.863 L 136.765 248.863 L 136.765 242.752 L 137.517 242.752 L 137.668 243.588 L 137.713 243.588 A 1.874 1.874 0 0 1 138.447 242.92 A 2.253 2.253 0 0 1 138.51 242.888 A 2.507 2.507 0 0 1 139.402 242.65 A 3.031 3.031 0 0 1 139.653 242.64 Q 140.757 242.64 141.315 243.173 A 1.604 1.604 0 0 1 141.706 243.786 Q 141.799 244.039 141.841 244.352 A 4.04 4.04 0 0 1 141.872 244.876 L 141.872 248.863 Z M 124.09 242.752 L 124.09 243.471 L 122.534 243.471 L 122.534 248.863 L 121.609 248.863 L 121.609 243.471 L 120.516 243.471 L 120.516 243.053 L 121.609 242.718 L 121.609 242.378 A 3.752 3.752 0 0 1 121.696 241.528 Q 122.024 240.125 123.577 240.125 A 2.981 2.981 0 0 1 123.999 240.157 Q 124.204 240.187 124.432 240.243 A 5.992 5.992 0 0 1 124.715 240.32 L 124.475 241.062 Q 124.095 240.939 123.793 240.904 A 1.991 1.991 0 0 0 123.56 240.889 A 1.248 1.248 0 0 0 123.259 240.923 A 0.802 0.802 0 0 0 122.785 241.238 A 1.071 1.071 0 0 0 122.644 241.523 Q 122.534 241.848 122.534 242.356 L 122.534 242.752 L 124.09 242.752 Z M 146.584 248.099 L 146.584 248.807 A 0.91 0.91 0 0 1 146.476 248.85 Q 146.361 248.888 146.196 248.918 A 3.463 3.463 0 0 1 146.141 248.927 Q 145.848 248.975 145.614 248.975 Q 144.2 248.975 143.913 247.786 A 2.91 2.91 0 0 1 143.841 247.107 L 143.841 243.471 L 142.965 243.471 L 142.965 243.025 L 143.841 242.64 L 144.231 241.335 L 144.766 241.335 L 144.766 242.752 L 146.54 242.752 L 146.54 243.471 L 144.766 243.471 L 144.766 247.068 A 1.864 1.864 0 0 0 144.793 247.395 Q 144.85 247.714 145.029 247.915 A 0.86 0.86 0 0 0 145.557 248.196 A 1.237 1.237 0 0 0 145.748 248.211 A 3.04 3.04 0 0 0 146.193 248.179 A 2.801 2.801 0 0 0 146.222 248.174 A 5.007 5.007 0 0 0 146.355 248.151 Q 146.492 248.126 146.584 248.099 Z M 128.724 242.707 L 128.596 243.566 A 4.08 4.08 0 0 0 128.302 243.512 Q 128.156 243.49 128.026 243.484 A 2.171 2.171 0 0 0 127.926 243.482 A 1.604 1.604 0 0 0 126.741 243.994 A 2.194 2.194 0 0 0 126.658 244.084 A 2.114 2.114 0 0 0 126.148 245.271 A 2.81 2.81 0 0 0 126.131 245.584 L 126.131 248.863 L 125.205 248.863 L 125.205 242.752 L 125.969 242.752 L 126.075 243.884 L 126.12 243.884 A 3.126 3.126 0 0 1 126.469 243.384 A 2.388 2.388 0 0 1 126.939 242.963 A 1.845 1.845 0 0 1 127.993 242.64 A 4.249 4.249 0 0 1 128.374 242.656 A 3.102 3.102 0 0 1 128.724 242.707 Z M 135.142 245.802 Q 135.142 247.296 134.389 248.135 A 2.468 2.468 0 0 1 132.937 248.922 A 3.594 3.594 0 0 1 132.309 248.975 A 2.973 2.973 0 0 1 131.446 248.853 A 2.577 2.577 0 0 1 130.854 248.59 Q 130.218 248.205 129.873 247.486 A 3.424 3.424 0 0 1 129.585 246.552 A 4.631 4.631 0 0 1 129.527 245.802 A 4.806 4.806 0 0 1 129.611 244.872 Q 129.718 244.331 129.96 243.909 A 2.557 2.557 0 0 1 130.274 243.474 A 2.448 2.448 0 0 1 131.703 242.695 A 3.595 3.595 0 0 1 132.348 242.64 A 3.11 3.11 0 0 1 133.261 242.768 A 2.423 2.423 0 0 1 134.386 243.493 Q 135.142 244.346 135.142 245.802 Z M 130.683 247.087 A 1.942 1.942 0 0 0 130.954 247.586 A 1.517 1.517 0 0 0 131.942 248.168 A 2.299 2.299 0 0 0 132.332 248.199 A 2.15 2.15 0 0 0 132.899 248.129 A 1.496 1.496 0 0 0 133.712 247.589 A 1.987 1.987 0 0 0 134.021 246.986 Q 134.112 246.708 134.152 246.368 A 4.876 4.876 0 0 0 134.183 245.802 A 4.619 4.619 0 0 0 134.139 245.144 Q 134.039 244.452 133.712 244.031 A 1.523 1.523 0 0 0 132.765 243.466 A 2.335 2.335 0 0 0 132.32 243.426 A 2.203 2.203 0 0 0 131.772 243.491 A 1.474 1.474 0 0 0 130.949 244.023 Q 130.616 244.452 130.522 245.185 A 4.891 4.891 0 0 0 130.486 245.802 Q 130.486 246.562 130.683 247.087 Z" id="front_labelLayer" stroke="#777777" fill="#777777" style="stroke:#777777;fill:#777777" vector-effect="non-scaling-stroke"/><path d="M 309.4 273.071 L 309.4 267.9 L 337.1 267.9 L 337.1 273.071 L 337.129 273.1 L 364.971 273.1 L 365 273.071 L 365 267.9 L 392.7 267.9 L 392.7 273.071 L 392.729 273.1 L 420.571 273.1 L 420.6 273.071 L 420.6 267.9 L 448.3 267.9 L 448.3 273.071 L 448.329 273.1 L 476.171 273.1 L 476.2 273.071 L 476.2 267.9 L 503.9 267.9 L 503.9 273.071 L 503.929 273.1 L 537.971 273.1 L 538 273.071 L 538 258.5 L 543.171 258.5 L 543.2 258.471 L 543.2 230.629 L 543.171 230.6 L 538 230.6 L 538 216.029 L 537.971 216 L 275.329 216 L 275.3 216.029 L 275.3 230.6 L 270.129 230.6 L 270.1 230.629 L 270.1 258.471 L 270.129 258.5 L 275.3 258.5 L 275.3 273.071 L 275.329 273.1 L 309.371 273.1 L 309.4 273.071 Z" id="left_outsideCutPath" stroke="#FF0000" stroke-width="0.1" style="stroke:#FF0000;stroke-width:0.1" vector-effect="non-scaling-stroke"/><path d="M 410.712 242.752 L 410.712 243.471 L 409.156 243.471 L 409.156 248.863 L 408.231 248.863 L 408.231 243.471 L 407.138 243.471 L 407.138 243.053 L 408.231 242.718 L 408.231 242.378 A 3.752 3.752 0 0 1 408.318 241.528 Q 408.646 240.125 410.199 240.125 A 2.981 2.981 0 0 1 410.621 240.157 Q 410.826 240.187 411.055 240.243 A 5.992 5.992 0 0 1 411.337 240.32 L 411.097 241.062 Q 410.717 240.939 410.415 240.904 A 1.991 1.991 0 0 0 410.183 240.889 A 1.248 1.248 0 0 0 409.882 240.923 A 0.802 0.802 0 0 0 409.407 241.238 A 1.071 1.071 0 0 0 409.266 241.523 Q 409.156 241.848 409.156 242.356 L 409.156 242.752 L 410.712 242.752 Z M 406.38 245.389 L 406.38 245.975 L 402.17 245.975 A 3.715 3.715 0 0 0 402.235 246.597 Q 402.359 247.225 402.713 247.608 A 1.682 1.682 0 0 0 403.596 248.106 A 2.548 2.548 0 0 0 404.166 248.166 A 4.889 4.889 0 0 0 405.997 247.803 A 5.601 5.601 0 0 0 406.117 247.753 L 406.117 248.579 A 5.557 5.557 0 0 1 405.611 248.77 A 4.25 4.25 0 0 1 405.189 248.883 Q 404.849 248.954 404.399 248.97 A 7.542 7.542 0 0 1 404.132 248.975 A 3.597 3.597 0 0 1 403.232 248.868 A 2.547 2.547 0 0 1 401.994 248.149 A 2.724 2.724 0 0 1 401.342 246.953 Q 401.21 246.459 401.21 245.857 A 4.861 4.861 0 0 1 401.3 244.894 Q 401.466 244.074 401.938 243.51 Q 402.666 242.64 403.893 242.64 Q 405.041 242.64 405.71 243.396 Q 406.38 244.151 406.38 245.389 Z M 414.638 248.099 L 414.638 248.807 A 0.91 0.91 0 0 1 414.53 248.85 Q 414.415 248.888 414.25 248.918 A 3.463 3.463 0 0 1 414.195 248.927 Q 413.902 248.975 413.668 248.975 Q 412.253 248.975 411.967 247.786 A 2.91 2.91 0 0 1 411.894 247.107 L 411.894 243.471 L 411.019 243.471 L 411.019 243.025 L 411.894 242.64 L 412.285 241.335 L 412.82 241.335 L 412.82 242.752 L 414.593 242.752 L 414.593 243.471 L 412.82 243.471 L 412.82 247.068 A 1.864 1.864 0 0 0 412.847 247.395 Q 412.904 247.714 413.082 247.915 A 0.86 0.86 0 0 0 413.611 248.196 A 1.237 1.237 0 0 0 413.801 248.211 A 3.04 3.04 0 0 0 414.247 248.179 A 2.801 2.801 0 0 0 414.275 248.174 A 5.007 5.007 0 0 0 414.409 248.151 Q 414.546 248.126 414.638 248.099 Z M 399.588 240.187 L 399.588 248.863 L 398.662 248.863 L 398.662 240.187 L 399.588 240.187 Z M 402.192 245.222 L 405.387 245.222 Q 405.387 244.346 404.997 243.881 A 1.268 1.268 0 0 0 404.233 243.446 A 1.902 1.902 0 0 0 403.881 243.415 A 1.825 1.825 0 0 0 403.354 243.488 A 1.41 1.41 0 0 0 402.708 243.895 A 1.829 1.829 0 0 0 402.344 244.508 Q 402.228 244.825 402.192 245.222 Z" id="left_labelLayer" stroke="#777777" fill="#777777" style="stroke:#777777;fill:#777777" vector-effect="non-scaling-stroke"/><path d="M 36.3 212.971 L 36.3 207.8 L 64 207.8 L 64 212.971 L 64.029 213 L 91.871 213 L 91.9 212.971 L 91.9 207.8 L 119.6 207.8 L 119.6 212.971 L 119.629 213 L 147.471 213 L 147.5 212.971 L 147.5 207.8 L 175.2 207.8 L 175.2 212.971 L 175.229 213 L 203.071 213 L 203.1 212.971 L 203.1 207.8 L 230.8 207.8 L 230.8 212.971 L 230.829 213 L 267.071 213 L 267.1 212.971 L 267.1 198.329 L 267.071 198.3 L 261.9 198.3 L 261.9 170.6 L 267.071 170.6 L 267.1 170.571 L 267.1 155.929 L 267.071 155.9 L 0.029 155.9 L 0 155.929 L 0 170.571 L 0.029 170.6 L 5.2 170.6 L 5.2 198.3 L 0.029 198.3 L 0 198.329 L 0 212.971 L 0.029 213 L 36.271 213 L 36.3 212.971 Z" id="back_outsideCutPath" stroke="#FF0000" stroke-width="0.1" style="stroke:#FF0000;stroke-width:0.1" vector-effect="non-scaling-stroke"/><path d="M 141.368 185.604 L 141.412 185.604 Q 141.596 185.344 141.927 184.959 A 19.888 19.888 0 0 1 142.143 184.712 L 144.117 182.621 L 145.215 182.621 L 142.74 185.225 L 145.388 188.732 L 144.267 188.732 L 142.109 185.844 L 141.412 186.446 L 141.412 188.732 L 140.498 188.732 L 140.498 180.056 L 141.412 180.056 L 141.412 184.656 A 6.169 6.169 0 0 1 141.41 184.831 Q 141.401 185.123 141.368 185.604 Z M 122.637 187.946 L 122.571 187.946 L 122.375 188.732 L 121.712 188.732 L 121.712 180.056 L 122.637 180.056 L 122.637 182.164 Q 122.637 182.849 122.596 183.399 A 11.537 11.537 0 0 1 122.593 183.435 L 122.637 183.435 A 2.105 2.105 0 0 1 124.174 182.543 A 3.161 3.161 0 0 1 124.556 182.521 A 2.829 2.829 0 0 1 125.352 182.627 A 2.118 2.118 0 0 1 126.426 183.343 Q 126.96 184.002 127.066 185.098 A 5.941 5.941 0 0 1 127.093 185.671 A 5.427 5.427 0 0 1 127.021 186.584 Q 126.873 187.449 126.421 188.01 A 2.191 2.191 0 0 1 124.863 188.829 A 3.139 3.139 0 0 1 124.556 188.844 Q 123.959 188.844 123.465 188.624 A 2.05 2.05 0 0 1 122.637 187.946 Z M 133.154 188.732 L 132.468 188.732 L 132.284 187.863 L 132.24 187.863 A 3.837 3.837 0 0 1 131.929 188.21 Q 131.762 188.374 131.595 188.489 A 1.705 1.705 0 0 1 131.328 188.64 Q 130.953 188.808 130.425 188.838 A 4.166 4.166 0 0 1 130.193 188.844 A 2.841 2.841 0 0 1 129.615 188.789 Q 129.107 188.683 128.768 188.376 Q 128.253 187.907 128.253 187.043 A 1.602 1.602 0 0 1 129.164 185.531 Q 129.895 185.142 131.214 185.102 L 132.251 185.069 L 132.251 184.69 A 2.659 2.659 0 0 0 132.225 184.305 Q 132.196 184.109 132.135 183.951 A 1.033 1.033 0 0 0 131.941 183.627 Q 131.694 183.354 131.211 183.299 A 2.287 2.287 0 0 0 130.952 183.285 Q 130.188 183.285 129.223 183.753 L 128.939 183.045 A 4.268 4.268 0 0 1 129.762 182.706 A 4.858 4.858 0 0 1 129.928 182.66 A 4.287 4.287 0 0 1 131.007 182.521 A 3.909 3.909 0 0 1 131.603 182.563 Q 131.909 182.61 132.153 182.71 A 1.575 1.575 0 0 1 132.627 183.006 Q 133.04 183.386 133.13 184.127 A 3.642 3.642 0 0 1 133.154 184.561 L 133.154 188.732 Z M 139.137 182.827 L 138.853 183.614 A 4.118 4.118 0 0 0 138.406 183.465 A 4.918 4.918 0 0 0 138.184 183.41 Q 137.821 183.329 137.543 183.329 Q 135.888 183.329 135.703 185.203 A 5.115 5.115 0 0 0 135.68 185.705 A 4.483 4.483 0 0 0 135.724 186.357 Q 135.822 187.019 136.135 187.433 A 1.47 1.47 0 0 0 137.087 188.002 A 2.239 2.239 0 0 0 137.481 188.035 A 3.875 3.875 0 0 0 138.55 187.88 A 4.784 4.784 0 0 0 139.048 187.706 L 139.048 188.526 Q 138.435 188.844 137.504 188.844 A 3.46 3.46 0 0 1 136.662 188.747 A 2.346 2.346 0 0 1 135.449 188.027 Q 134.721 187.21 134.721 185.716 A 5.107 5.107 0 0 1 134.8 184.787 Q 134.963 183.909 135.46 183.346 A 2.397 2.397 0 0 1 136.772 182.591 A 3.634 3.634 0 0 1 137.565 182.509 A 4.177 4.177 0 0 1 138.446 182.604 A 4.62 4.62 0 0 1 138.703 182.667 Q 138.961 182.738 139.132 182.824 A 1.359 1.359 0 0 1 139.137 182.827 Z M 124.422 183.296 A 2.601 2.601 0 0 0 123.918 183.341 Q 123.631 183.398 123.413 183.525 A 1.231 1.231 0 0 0 123.056 183.839 A 1.585 1.585 0 0 0 122.826 184.276 Q 122.672 184.71 122.644 185.369 A 7.132 7.132 0 0 0 122.637 185.671 Q 122.637 186.959 123.067 187.514 A 1.343 1.343 0 0 0 123.748 187.974 Q 123.976 188.045 124.253 188.063 A 2.976 2.976 0 0 0 124.444 188.069 A 1.845 1.845 0 0 0 124.968 187.999 A 1.331 1.331 0 0 0 125.715 187.447 A 2.125 2.125 0 0 0 125.978 186.878 Q 126.134 186.37 126.134 185.66 A 5.469 5.469 0 0 0 126.101 185.037 Q 126.022 184.355 125.758 183.944 A 1.536 1.536 0 0 0 125.715 183.881 A 1.35 1.35 0 0 0 124.856 183.337 A 2.141 2.141 0 0 0 124.422 183.296 Z M 132.228 186.279 L 132.228 185.727 L 131.303 185.766 Q 130.199 185.805 129.711 186.109 A 0.988 0.988 0 0 0 129.24 186.825 A 1.462 1.462 0 0 0 129.223 187.054 Q 129.223 187.556 129.527 187.818 Q 129.789 188.044 130.233 188.075 A 2.082 2.082 0 0 0 130.377 188.08 A 2.549 2.549 0 0 0 130.928 188.024 Q 131.311 187.939 131.594 187.726 A 1.545 1.545 0 0 0 131.735 187.606 A 1.55 1.55 0 0 0 132.167 186.832 Q 132.227 186.583 132.228 186.288 A 2.957 2.957 0 0 0 132.228 186.279 Z" id="back_labelLayer" stroke="#777777" fill="#777777" style="stroke:#777777;fill:#777777" vector-effect="non-scaling-stroke"/><path d="M 309.4 212.971 L 309.4 207.8 L 337.1 207.8 L 337.1 212.971 L 337.129 213 L 364.971 213 L 365 212.971 L 365 207.8 L 392.7 207.8 L 392.7 212.971 L 392.729 213 L 420.571 213 L 420.6 212.971 L 420.6 207.8 L 448.3 207.8 L 448.3 212.971 L 448.329 213 L 476.171 213 L 476.2 212.971 L 476.2 207.8 L 503.9 207.8 L 503.9 212.971 L 503.929 213 L 537.971 213 L 538 212.971 L 538 198.4 L 543.171 198.4 L 543.2 198.371 L 543.2 170.529 L 543.171 170.5 L 538 170.5 L 538 155.929 L 537.971 155.9 L 275.329 155.9 L 275.3 155.929 L 275.3 170.5 L 270.129 170.5 L 270.1 170.529 L 270.1 198.371 L 270.129 198.4 L 275.3 198.4 L 275.3 212.971 L 275.329 213 L 309.371 213 L 309.4 212.971 Z" id="right_outsideCutPath" stroke="#FF0000" stroke-width="0.1" style="stroke:#FF0000;stroke-width:0.1" vector-effect="non-scaling-stroke"/><path d="M 413.751 187.416 L 412.826 187.416 L 412.826 183.463 A 2.617 2.617 0 0 0 412.796 183.053 Q 412.725 182.607 412.485 182.348 Q 412.21 182.05 411.683 181.993 A 2.454 2.454 0 0 0 411.42 181.98 A 2.801 2.801 0 0 0 410.897 182.025 Q 410.606 182.081 410.383 182.203 A 1.296 1.296 0 0 0 410.012 182.504 Q 409.607 182.983 409.572 184.022 A 5.974 5.974 0 0 0 409.569 184.221 L 409.569 187.416 L 408.643 187.416 L 408.643 178.74 L 409.569 178.74 L 409.569 181.366 A 8.327 8.327 0 0 1 409.563 181.686 Q 409.553 181.953 409.525 182.153 L 409.58 182.153 A 1.849 1.849 0 0 1 410.228 181.529 A 2.259 2.259 0 0 1 410.358 181.458 A 2.376 2.376 0 0 1 411.138 181.227 A 3.004 3.004 0 0 1 411.51 181.205 Q 412.247 181.205 412.742 181.435 A 1.668 1.668 0 0 1 413.191 181.737 A 1.612 1.612 0 0 1 413.588 182.361 Q 413.751 182.804 413.751 183.43 L 413.751 187.416 Z M 405.275 181.305 L 407.389 181.305 L 407.389 181.891 L 406.257 182.024 Q 406.413 182.219 406.536 182.535 Q 406.658 182.85 406.658 183.246 A 2.122 2.122 0 0 1 406.561 183.903 A 1.716 1.716 0 0 1 406.045 184.679 A 2.053 2.053 0 0 1 405.237 185.104 Q 404.846 185.214 404.361 185.214 A 2.975 2.975 0 0 1 404.017 185.195 A 2.512 2.512 0 0 1 403.848 185.169 A 1.647 1.647 0 0 0 403.582 185.341 Q 403.257 185.604 403.257 185.956 Q 403.257 186.199 403.451 186.319 A 0.514 0.514 0 0 0 403.463 186.326 Q 403.67 186.446 404.171 186.446 L 405.253 186.446 A 3.789 3.789 0 0 1 405.829 186.487 Q 406.129 186.533 406.373 186.632 A 1.673 1.673 0 0 1 406.778 186.864 A 1.354 1.354 0 0 1 407.282 187.727 A 2.034 2.034 0 0 1 407.311 188.08 Q 407.311 189.075 406.528 189.606 A 2.2 2.2 0 0 1 406.497 189.627 A 2.776 2.776 0 0 1 405.781 189.952 Q 405.428 190.059 404.998 190.111 A 7.337 7.337 0 0 1 404.121 190.16 A 5.186 5.186 0 0 1 403.426 190.116 Q 403.072 190.068 402.784 189.968 A 2.151 2.151 0 0 1 402.273 189.714 A 1.475 1.475 0 0 1 401.797 189.198 Q 401.623 188.875 401.623 188.454 Q 401.623 187.896 401.98 187.489 A 1.616 1.616 0 0 1 402.535 187.084 A 2.291 2.291 0 0 1 402.984 186.937 A 0.961 0.961 0 0 1 402.611 186.635 A 1.141 1.141 0 0 1 402.591 186.608 Q 402.432 186.385 402.432 186.089 A 1.059 1.059 0 0 1 402.485 185.748 A 0.938 0.938 0 0 1 402.61 185.504 A 1.325 1.325 0 0 1 402.785 185.307 Q 402.878 185.219 402.998 185.134 A 2.908 2.908 0 0 1 403.173 185.019 A 1.623 1.623 0 0 1 402.468 184.454 A 2.011 2.011 0 0 1 402.401 184.355 Q 402.103 183.887 402.103 183.285 A 2.674 2.674 0 0 1 402.173 182.652 A 1.76 1.76 0 0 1 402.705 181.737 Q 403.225 181.268 404.12 181.204 A 4.088 4.088 0 0 1 404.411 181.193 Q 404.891 181.193 405.275 181.305 Z M 418.463 186.653 L 418.463 187.361 A 0.91 0.91 0 0 1 418.355 187.404 Q 418.24 187.442 418.075 187.471 A 3.463 3.463 0 0 1 418.02 187.481 Q 417.727 187.528 417.493 187.528 Q 416.079 187.528 415.792 186.34 A 2.91 2.91 0 0 1 415.72 185.66 L 415.72 182.024 L 414.844 182.024 L 414.844 181.578 L 415.72 181.193 L 416.11 179.889 L 416.645 179.889 L 416.645 181.305 L 418.419 181.305 L 418.419 182.024 L 416.645 182.024 L 416.645 185.621 A 1.864 1.864 0 0 0 416.672 185.948 Q 416.729 186.268 416.907 186.469 A 0.86 0.86 0 0 0 417.436 186.75 A 1.237 1.237 0 0 0 417.627 186.764 A 3.04 3.04 0 0 0 418.072 186.732 A 2.801 2.801 0 0 0 418.101 186.728 A 5.007 5.007 0 0 0 418.234 186.705 Q 418.371 186.679 418.463 186.653 Z M 398.355 181.26 L 398.227 182.119 A 4.08 4.08 0 0 0 397.934 182.065 Q 397.787 182.044 397.657 182.038 A 2.171 2.171 0 0 0 397.558 182.035 A 1.604 1.604 0 0 0 396.373 182.547 A 2.194 2.194 0 0 0 396.289 182.638 A 2.114 2.114 0 0 0 395.78 183.825 A 2.81 2.81 0 0 0 395.763 184.138 L 395.763 187.416 L 394.837 187.416 L 394.837 181.305 L 395.601 181.305 L 395.707 182.437 L 395.751 182.437 A 3.126 3.126 0 0 1 396.101 181.938 A 2.388 2.388 0 0 1 396.571 181.517 A 1.845 1.845 0 0 1 397.625 181.193 A 4.249 4.249 0 0 1 398.005 181.21 A 3.102 3.102 0 0 1 398.355 181.26 Z M 400.424 181.305 L 400.424 187.416 L 399.499 187.416 L 399.499 181.305 L 400.424 181.305 Z M 404.958 187.277 L 403.848 187.277 A 2.128 2.128 0 0 0 403.464 187.31 Q 403.247 187.349 403.075 187.439 A 1.084 1.084 0 0 0 402.867 187.578 A 0.975 0.975 0 0 0 402.546 188.131 A 1.481 1.481 0 0 0 402.515 188.443 A 0.93 0.93 0 0 0 402.577 188.787 Q 402.665 189.01 402.879 189.16 A 1.086 1.086 0 0 0 402.933 189.195 Q 403.35 189.451 404.125 189.452 A 4.827 4.827 0 0 0 404.132 189.452 Q 405.173 189.452 405.732 189.174 A 1.537 1.537 0 0 0 405.858 189.103 A 1.35 1.35 0 0 0 406.171 188.841 A 1.012 1.012 0 0 0 406.419 188.158 A 1.252 1.252 0 0 0 406.396 187.909 Q 406.335 187.609 406.112 187.469 A 0.878 0.878 0 0 0 405.904 187.379 Q 405.682 187.31 405.331 187.288 A 5.89 5.89 0 0 0 404.958 187.277 Z M 403.017 183.262 A 1.807 1.807 0 0 0 403.054 183.641 Q 403.133 184.009 403.38 184.232 A 1.196 1.196 0 0 0 403.861 184.494 Q 404.044 184.547 404.263 184.558 A 2.383 2.383 0 0 0 404.389 184.561 A 2.017 2.017 0 0 0 404.917 184.499 Q 405.521 184.334 405.684 183.741 A 1.875 1.875 0 0 0 405.744 183.246 A 1.99 1.99 0 0 0 405.676 182.7 Q 405.502 182.089 404.88 181.927 A 2.013 2.013 0 0 0 404.372 181.868 A 1.942 1.942 0 0 0 403.976 181.906 Q 403.734 181.957 403.549 182.075 A 1.065 1.065 0 0 0 403.368 182.219 A 1.111 1.111 0 0 0 403.1 182.672 Q 403.017 182.927 403.017 183.262 Z M 399.434 179.479 A 1.026 1.026 0 0 0 399.42 179.649 A 1.093 1.093 0 0 0 399.425 179.753 Q 399.434 179.847 399.46 179.923 A 0.478 0.478 0 0 0 399.577 180.114 A 0.519 0.519 0 0 0 399.765 180.234 A 0.588 0.588 0 0 0 399.967 180.268 A 0.54 0.54 0 0 0 400.352 180.114 A 0.452 0.452 0 0 0 400.44 179.998 Q 400.513 179.859 400.513 179.649 A 1.059 1.059 0 0 0 400.509 179.549 Q 400.5 179.457 400.475 179.382 A 0.467 0.467 0 0 0 400.352 179.186 A 0.545 0.545 0 0 0 399.967 179.036 A 0.706 0.706 0 0 0 399.92 179.037 A 0.535 0.535 0 0 0 399.577 179.183 A 0.433 0.433 0 0 0 399.481 179.319 Q 399.449 179.39 399.434 179.479 Z" id="right_labelLayer" stroke="#777777" fill="#777777" style="stroke:#777777;fill:#777777" vector-effect="non-scaling-stroke"/><path d="M 610.3 273.071 L 610.3 267.9 L 638 267.9 L 638 273.071 L 638.029 273.1 L 665.871 273.1 L 665.9 273.071 L 665.9 267.9 L 693.6 267.9 L 693.6 273.071 L 693.629 273.1 L 721.471 273.1 L 721.5 273.071 L 721.5 267.9 L 749.2 267.9 L 749.2 273.071 L 749.229 273.1 L 777.071 273.1 L 777.1 273.071 L 777.1 267.9 L 808.071 267.9 L 808.1 267.871 L 808.1 233.9 L 813.271 233.9 L 813.3 233.871 L 813.3 206.029 L 813.271 206 L 808.1 206 L 808.1 178.3 L 813.271 178.3 L 813.3 178.271 L 813.3 150.429 L 813.271 150.4 L 808.1 150.4 L 808.1 122.7 L 813.271 122.7 L 813.3 122.671 L 813.3 94.829 L 813.271 94.8 L 808.1 94.8 L 808.1 67.1 L 813.271 67.1 L 813.3 67.071 L 813.3 39.229 L 813.271 39.2 L 808.1 39.2 L 808.1 5.229 L 808.071 5.2 L 777.1 5.2 L 777.1 0.029 L 777.071 0 L 749.229 0 L 749.2 0.029 L 749.2 5.2 L 721.5 5.2 L 721.5 0.029 L 721.471 0 L 693.629 0 L 693.6 0.029 L 693.6 5.2 L 665.9 5.2 L 665.9 0.029 L 665.871 0 L 638.029 0 L 638 0.029 L 638 5.2 L 610.3 5.2 L 610.3 0.029 L 610.271 0 L 582.429 0 L 582.4 0.029 L 582.4 5.2 L 551.429 5.2 L 551.4 5.229 L 551.4 39.2 L 546.229 39.2 L 546.2 39.229 L 546.2 67.071 L 546.229 67.1 L 551.4 67.1 L 551.4 94.8 L 546.229 94.8 L 546.2 94.829 L 546.2 122.671 L 546.229 122.7 L 551.4 122.7 L 551.4 150.4 L 546.229 150.4 L 546.2 150.429 L 546.2 178.271 L 546.229 178.3 L 551.4 178.3 L 551.4 206 L 546.229 206 L 546.2 206.029 L 546.2 233.871 L 546.229 233.9 L 551.4 233.9 L 551.4 267.871 L 551.429 267.9 L 582.4 267.9 L 582.4 273.071 L 582.429 273.1 L 610.271 273.1 L 610.3 273.071 Z" id="bottom_outsideCutPath" stroke="#FF0000" stroke-width="0.1" style="stroke:#FF0000;stroke-width:0.1" vector-effect="non-scaling-stroke"/><path d="M 767.627 156.582 L 763.297 156.582 L 763.297 137.984 A 12.774 12.774 0 0 0 763.168 136.106 Q 763.025 135.147 762.724 134.373 A 5.233 5.233 0 0 0 761.836 132.858 A 4.556 4.556 0 0 0 759.718 131.489 Q 758.668 131.15 757.298 131.15 A 11.142 11.142 0 0 0 755.03 131.365 Q 752.666 131.857 751.324 133.471 A 7.155 7.155 0 0 0 750.111 135.667 Q 749.4 137.663 749.394 140.574 A 23.957 23.957 0 0 0 749.394 140.618 L 749.394 156.582 L 745.064 156.582 L 745.064 137.984 A 12.774 12.774 0 0 0 744.935 136.106 Q 744.793 135.147 744.491 134.373 A 5.233 5.233 0 0 0 743.603 132.858 A 4.542 4.542 0 0 0 741.514 131.501 Q 740.445 131.15 739.039 131.15 A 10.754 10.754 0 0 0 736.815 131.365 Q 734.408 131.874 733.079 133.589 A 7.261 7.261 0 0 0 732.002 135.634 Q 731.187 137.937 731.187 141.584 L 731.187 156.582 L 726.858 156.582 L 726.858 127.994 L 730.379 127.994 L 731.083 131.906 L 731.292 131.906 Q 732.518 129.82 734.748 128.646 A 10.28 10.28 0 0 1 738.808 127.507 A 12.416 12.416 0 0 1 739.743 127.472 A 14.176 14.176 0 0 1 742.934 127.804 Q 746.986 128.742 748.507 132.324 L 748.716 132.324 A 9.041 9.041 0 0 1 752.121 128.943 A 10.862 10.862 0 0 1 752.42 128.776 A 10.959 10.959 0 0 1 756.44 127.554 A 13.665 13.665 0 0 1 757.95 127.472 Q 762.801 127.472 765.214 129.963 A 7.456 7.456 0 0 1 766.815 132.582 Q 767.246 133.736 767.448 135.174 A 19.86 19.86 0 0 1 767.627 137.932 L 767.627 156.582 Z M 596.203 152.904 L 595.89 152.904 L 594.977 156.582 L 591.873 156.582 L 591.873 115.995 L 596.203 115.995 L 596.203 125.855 Q 596.203 129.168 595.994 131.802 L 596.203 131.802 A 9.845 9.845 0 0 1 603.389 127.629 A 14.788 14.788 0 0 1 605.176 127.524 A 13.234 13.234 0 0 1 608.9 128.021 A 9.907 9.907 0 0 1 613.927 131.372 A 12.759 12.759 0 0 1 616.164 135.681 Q 616.714 137.455 616.92 139.582 A 27.793 27.793 0 0 1 617.044 142.262 A 25.387 25.387 0 0 1 616.708 146.533 Q 616.016 150.58 613.901 153.204 A 10.25 10.25 0 0 1 606.615 157.035 A 14.686 14.686 0 0 1 605.176 157.104 A 13.134 13.134 0 0 1 601.876 156.701 A 11.428 11.428 0 0 1 600.076 156.073 A 9.59 9.59 0 0 1 596.203 152.904 Z M 670.021 153.008 L 670.021 156.321 A 4.259 4.259 0 0 1 669.515 156.521 Q 668.888 156.729 667.947 156.882 A 18.767 18.767 0 0 1 666.723 157.041 Q 666.146 157.096 665.629 157.103 A 11.1 11.1 0 0 1 665.482 157.104 Q 658.866 157.104 657.527 151.545 A 13.61 13.61 0 0 1 657.187 148.365 L 657.187 131.359 L 653.092 131.359 L 653.092 129.272 L 657.187 127.472 L 659.013 121.368 L 661.517 121.368 L 661.517 127.994 L 669.812 127.994 L 669.812 131.359 L 661.517 131.359 L 661.517 148.183 A 8.719 8.719 0 0 0 661.643 149.714 Q 661.793 150.554 662.122 151.219 A 4.2 4.2 0 0 0 662.743 152.148 A 4.022 4.022 0 0 0 665.216 153.464 A 5.787 5.787 0 0 0 666.108 153.53 A 14.22 14.22 0 0 0 668.191 153.381 A 13.112 13.112 0 0 0 668.325 153.36 A 23.423 23.423 0 0 0 668.95 153.253 Q 669.548 153.142 669.962 153.025 A 6.503 6.503 0 0 0 670.021 153.008 Z M 688.879 153.008 L 688.879 156.321 A 4.259 4.259 0 0 1 688.374 156.521 Q 687.747 156.729 686.806 156.882 A 18.767 18.767 0 0 1 685.582 157.041 Q 685.005 157.096 684.487 157.103 A 11.1 11.1 0 0 1 684.341 157.104 Q 677.725 157.104 676.386 151.545 A 13.61 13.61 0 0 1 676.046 148.365 L 676.046 131.359 L 671.951 131.359 L 671.951 129.272 L 676.046 127.472 L 677.872 121.368 L 680.376 121.368 L 680.376 127.994 L 688.671 127.994 L 688.671 131.359 L 680.376 131.359 L 680.376 148.183 A 8.719 8.719 0 0 0 680.502 149.714 Q 680.652 150.554 680.981 151.219 A 4.2 4.2 0 0 0 681.602 152.148 A 4.022 4.022 0 0 0 684.075 153.464 A 5.787 5.787 0 0 0 684.967 153.53 A 14.22 14.22 0 0 0 687.05 153.381 A 13.112 13.112 0 0 0 687.184 153.36 A 23.423 23.423 0 0 0 687.809 153.253 Q 688.406 153.142 688.821 153.025 A 6.503 6.503 0 0 0 688.879 153.008 Z M 648.886 146.613 A 22.366 22.366 0 0 0 649.284 142.262 A 25.412 25.412 0 0 0 649.275 141.574 Q 649.103 135.25 645.749 131.463 A 11.335 11.335 0 0 0 640.487 128.069 A 14.55 14.55 0 0 0 636.216 127.472 A 16.817 16.817 0 0 0 633.195 127.731 A 11.453 11.453 0 0 0 626.512 131.372 Q 623.017 135.271 623.017 142.262 A 21.661 21.661 0 0 0 623.289 145.77 A 16.018 16.018 0 0 0 624.634 150.139 A 14.232 14.232 0 0 0 624.95 150.756 A 11.722 11.722 0 0 0 629.225 155.304 A 12.057 12.057 0 0 0 631.993 156.534 A 13.905 13.905 0 0 0 636.033 157.104 A 16.814 16.814 0 0 0 638.969 156.858 A 11.544 11.544 0 0 0 645.762 153.178 Q 648.101 150.571 648.886 146.613 Z M 718.87 146.613 A 22.366 22.366 0 0 0 719.267 142.262 A 25.412 25.412 0 0 0 719.258 141.574 Q 719.087 135.25 715.733 131.463 A 11.335 11.335 0 0 0 710.47 128.069 A 14.55 14.55 0 0 0 706.199 127.472 A 16.817 16.817 0 0 0 703.178 127.731 A 11.453 11.453 0 0 0 696.496 131.372 Q 693.001 135.271 693.001 142.262 A 21.661 21.661 0 0 0 693.273 145.77 A 16.018 16.018 0 0 0 694.618 150.139 A 14.232 14.232 0 0 0 694.933 150.756 A 11.722 11.722 0 0 0 699.209 155.304 A 12.057 12.057 0 0 0 701.976 156.534 A 13.905 13.905 0 0 0 706.016 157.104 A 16.814 16.814 0 0 0 708.953 156.858 A 11.544 11.544 0 0 0 715.746 153.178 Q 718.084 150.571 718.87 146.613 Z M 628.426 148.272 A 9.084 9.084 0 0 0 629.695 150.609 A 7.097 7.097 0 0 0 634.317 153.331 A 10.754 10.754 0 0 0 636.137 153.478 A 10.057 10.057 0 0 0 638.791 153.148 A 6.999 6.999 0 0 0 642.593 150.622 A 9.295 9.295 0 0 0 644.041 147.802 Q 644.466 146.5 644.652 144.909 A 22.808 22.808 0 0 0 644.797 142.262 Q 644.797 136.81 642.593 133.98 A 7.123 7.123 0 0 0 638.165 131.338 A 10.921 10.921 0 0 0 636.085 131.15 A 10.305 10.305 0 0 0 633.52 131.45 A 6.896 6.896 0 0 0 629.669 133.941 A 8.953 8.953 0 0 0 628.277 136.63 Q 627.866 137.866 627.674 139.378 A 22.881 22.881 0 0 0 627.504 142.262 Q 627.504 145.816 628.426 148.272 Z M 698.41 148.272 A 9.084 9.084 0 0 0 699.678 150.609 A 7.097 7.097 0 0 0 704.3 153.331 A 10.754 10.754 0 0 0 706.121 153.478 A 10.057 10.057 0 0 0 708.774 153.148 A 6.999 6.999 0 0 0 712.577 150.622 A 9.295 9.295 0 0 0 714.024 147.802 Q 714.45 146.5 714.636 144.909 A 22.808 22.808 0 0 0 714.781 142.262 Q 714.781 136.81 712.577 133.98 A 7.123 7.123 0 0 0 708.148 131.338 A 10.921 10.921 0 0 0 706.069 131.15 A 10.305 10.305 0 0 0 703.503 131.45 A 6.896 6.896 0 0 0 699.652 133.941 A 8.953 8.953 0 0 0 698.26 136.63 Q 697.849 137.866 697.657 139.378 A 22.881 22.881 0 0 0 697.487 142.262 Q 697.487 145.816 698.41 148.272 Z M 604.55 131.15 Q 600.115 131.15 598.159 133.693 A 7.412 7.412 0 0 0 597.086 135.737 Q 596.362 137.766 596.232 140.85 A 33.36 33.36 0 0 0 596.203 142.262 A 28.629 28.629 0 0 0 596.345 145.221 Q 596.736 148.977 598.211 150.882 A 6.282 6.282 0 0 0 601.398 153.033 Q 602.463 153.367 603.762 153.45 A 13.922 13.922 0 0 0 604.654 153.478 A 8.632 8.632 0 0 0 607.106 153.15 A 6.227 6.227 0 0 0 610.601 150.569 Q 611.999 148.492 612.398 145.116 A 24.81 24.81 0 0 0 612.558 142.21 A 25.582 25.582 0 0 0 612.403 139.295 Q 612.007 135.857 610.601 133.889 A 6.314 6.314 0 0 0 606.581 131.345 A 10.014 10.014 0 0 0 604.55 131.15 Z" id="bottom_labelLayer" stroke="#777777" fill="#777777" style="stroke:#777777;fill:#777777" vector-effect="non-scaling-stroke"/></g></svg>